<svg width="50" height="50" viewBox="0 0 50 50" fill="none" xmlns="http://www.w3.org/2000/svg">
<g clip-path="url(#clip0)">
<path d="M28.3455 31.6483C28.3455 36.2476 32.0739 39.9761 36.6732 39.9761C41.2722 39.9761 45.0006 36.2476 45.0006 31.6483C45.0006 27.0494 41.2722 23.3209 36.6732 23.3209C32.076 23.326 28.3505 27.0514 28.3455 31.6483V31.6483ZM36.6732 24.9863C40.3526 24.9863 43.3353 27.9689 43.3353 31.6483C43.3353 35.3278 40.3526 38.3104 36.6732 38.3104C32.9938 38.3104 30.0111 35.3278 30.0111 31.6483C30.0152 27.9709 32.9955 24.9903 36.6732 24.9863Z" fill="#ECDECE"/>
<path d="M31.9148 48.3038H41.4325V49.9692H31.9148V48.3038Z" fill="#ECDECE"/>
<path d="M28.3455 44.9725H45.001V46.6381H28.3455V44.9725Z" fill="#ECDECE"/>
<path d="M10.0247 44.9725H11.6903V46.6381H10.0247V44.9725Z" fill="#ECDECE"/>
<path d="M5.0282 46.6382H6.69355V48.3038H5.0282V46.6382Z" fill="#ECDECE"/>
<path d="M10.108 40.2865C14.4563 32.7133 17.1847 24.3194 18.12 15.6369L25.8648 23.3357C26.0197 23.4899 26.229 23.5769 26.4477 23.5779C26.4927 23.5783 26.5381 23.5746 26.5824 23.5672C26.8465 23.5242 27.0736 23.3569 27.1929 23.1177C28.7628 19.9842 28.148 16.1972 25.6673 13.7216L24.9863 13.0402H30.8437C31.3037 13.0406 31.6769 12.668 31.6769 12.2081C31.6773 12.118 31.6625 12.0287 31.6343 11.9437C30.5283 8.61767 27.416 6.37481 23.9109 6.37817H22.8284L26.9873 2.19515C27.3118 1.86927 27.3105 1.34215 26.9846 1.01762C26.9214 0.954791 26.8489 0.902381 26.7692 0.862738C23.6344 -0.708877 19.8455 -0.0944086 17.3681 2.38765L16.5729 3.18287C16.3135 3.44391 16.0726 3.72208 15.8509 4.01571C15.6319 3.72208 15.3927 3.44391 15.1353 3.18287L14.3401 2.38765C11.8647 -0.0927288 8.07782 -0.707197 4.945 0.862738C4.53345 1.06834 4.36648 1.56859 4.57209 1.9798C4.61173 2.05942 4.66414 2.13199 4.72696 2.19515L8.8905 6.37817H7.79729C4.29223 6.37481 1.17957 8.61767 0.0739317 11.9437C-0.0718746 12.3797 0.163633 12.8514 0.600043 12.9972C0.685041 13.0258 0.774406 13.0402 0.864443 13.0402H6.71618L6.03519 13.7216C3.55447 16.1972 2.93966 19.9842 4.50926 23.1177C4.62886 23.3569 4.85597 23.5242 5.1197 23.5672C5.16438 23.5746 5.2094 23.5783 5.25476 23.5779C5.47481 23.5779 5.68579 23.4909 5.84168 23.3357L13.0537 16.1663C12.1607 24.1464 9.15524 31.7437 4.34699 38.1747C3.22758 37.8807 2.09271 37.6492 0.947761 37.4819L0.42736 37.4295L0.260725 39.0875L0.746186 39.1348C1.57903 39.2541 2.40649 39.4224 3.22959 39.6129C3.06296 39.8219 2.89632 40.0342 2.72398 40.2401L4.00129 41.3085C10.401 33.6997 14.2161 24.2535 14.8958 14.3343L15.8543 13.3819L16.5719 14.0955C15.6964 24.7034 12.0552 34.8967 6.01167 43.6585L7.37566 44.613C8.03045 43.6783 8.655 42.7084 9.26039 41.72C13.1558 43.5833 16.5954 46.278 19.3368 49.6144L20.6249 48.5591C19.0039 46.5884 17.1467 44.8243 15.0947 43.3071H49.9974V41.6414H12.6274C11.811 41.1486 10.9684 40.7021 10.108 40.2865V40.2865ZM26.142 21.2611L17.3432 12.5131C19.5938 11.8412 22.0315 12.451 23.7006 14.1035L24.4958 14.8991C26.1618 16.5621 26.7921 18.9988 26.142 21.2611ZM29.5731 11.3749H22.6779C21.072 10.6106 19.2602 10.3942 17.5196 10.7594C18.7314 9.05543 20.6927 8.04352 22.7838 8.04386H23.9079C26.2619 8.04016 28.4319 9.31613 29.5731 11.3749ZM17.7477 4.3604L18.5433 3.56519C20.2076 1.89883 22.6453 1.26824 24.9087 1.91866L19.9721 6.88446C18.3699 7.47407 16.9945 8.55384 16.0407 9.96991C15.6534 7.93266 16.2924 5.83493 17.7504 4.3604H17.7477ZM13.1602 3.56519L13.9554 4.3604C14.3263 4.73903 14.6482 5.16301 14.9132 5.62193C14.536 6.49912 14.3206 7.43678 14.2769 8.39023C13.5294 7.73713 12.6684 7.22714 11.7371 6.88446L6.79949 1.91866C9.06218 1.26858 11.4992 1.89917 13.1626 3.56519H13.1602ZM7.79461 8.04386H8.91906C11.0114 8.04184 12.9754 9.05341 14.1886 10.7584C12.449 10.3946 10.6378 10.6109 9.03295 11.3749H2.13504C3.27596 9.31714 5.44424 8.04151 7.79729 8.04386H7.79461ZM5.56619 21.2611C4.91611 18.9988 5.5467 16.5621 7.21272 14.8991L8.00794 14.1035C9.20597 12.9085 10.8307 12.2396 12.5232 12.245C13.1478 12.2454 13.769 12.3344 14.3687 12.5098L5.56619 21.2611Z" fill="#ECDECE"/>
</g>
<defs>
<clipPath id="clip0">
<rect width="50" height="50" fill="white"/>
</clipPath>
</defs>
</svg>
