<svg width="24" height="24" viewBox="0 0 24 24" fill="none" xmlns="http://www.w3.org/2000/svg">
<path d="M16.9683 5.11581V3.30409C16.9683 3.14706 16.7878 3.06034 16.666 3.15643L6.10033 11.4088C6.01056 11.4786 5.93792 11.568 5.88795 11.6701C5.83799 11.7723 5.81201 11.8845 5.81201 11.9982C5.81201 12.112 5.83799 12.2242 5.88795 12.3263C5.93792 12.4285 6.01056 12.5179 6.10033 12.5877L16.666 20.84C16.7902 20.9361 16.9683 20.8494 16.9683 20.6924V18.8807C16.9683 18.7658 16.9144 18.6557 16.8253 18.5853L8.38783 11.9994L16.8253 5.41112C16.9144 5.34081 16.9683 5.23065 16.9683 5.11581V5.11581Z" 
fill="#ab0156" stroke="#ab0156" stroke-width="1"/>
</svg>
