<svg width="24" height="24" viewBox="0 0 24 24" fill="none" xmlns="http://www.w3.org/2000/svg">
<path d="M17.9459 11.4093L7.38035 3.15697C7.35274 3.13523 7.31956 3.12173 7.28462 3.118C7.24968 3.11427 7.2144 3.12047 7.18283 3.13589C7.15125 3.15131 7.12467 3.17532 7.10613 3.20517C7.08759 3.23502 7.07784 3.26949 7.07801 3.30463V5.11635C7.07801 5.23119 7.13191 5.34134 7.22097 5.41166L15.6585 11.9999L7.22097 18.5882C7.12957 18.6585 7.07801 18.7687 7.07801 18.8835V20.6953C7.07801 20.8523 7.25847 20.939 7.38035 20.8429L17.9459 12.5906C18.0357 12.5205 18.1084 12.4309 18.1584 12.3286C18.2083 12.2262 18.2343 12.1138 18.2343 11.9999C18.2343 11.886 18.2083 11.7737 18.1584 11.6713C18.1084 11.569 18.0357 11.4794 17.9459 11.4093Z"
 fill="#37231d" stroke="#37231d" stroke-width="1"/>
</svg>
