<svg width="40" height="40" viewBox="0 0 40 40" fill="none" xmlns="http://www.w3.org/2000/svg">
<rect width="40" height="40" rx="10" fill="#37231D"/>
<g clip-path="url(#clip0)">
<path d="M20.5 10.9781C23.5727 10.9781 23.9363 10.9911 25.1446 11.0426C26.268 11.09 26.8739 11.2699 27.2785 11.4203C27.8133 11.6181 28.1992 11.8584 28.5989 12.2402C29.0035 12.6268 29.2501 12.9915 29.4614 13.5024C29.6188 13.889 29.8071 14.472 29.8567 15.5412C29.9106 16.7003 29.9242 17.0478 29.9242 19.9793C29.9242 22.9108 29.9106 23.2623 29.8567 24.4174C29.8071 25.4907 29.6188 26.0695 29.4614 26.4562C29.2544 26.967 29.0035 27.3358 28.6032 27.7176C28.1985 28.1042 27.8169 28.3398 27.2828 28.5416C26.8782 28.692 26.2672 28.8719 25.1489 28.9193C23.9356 28.9708 23.5719 28.9839 20.5036 28.9839C17.4352 28.9839 17.0672 28.9708 15.8583 28.9193C14.7349 28.8719 14.129 28.692 13.7243 28.5416C13.1896 28.3439 12.8036 28.1042 12.4033 27.7217C11.9986 27.3351 11.7521 26.9705 11.5408 26.4603C11.3834 26.0737 11.1951 25.49 11.1455 24.4215C11.0916 23.2623 11.0779 22.9149 11.0779 19.9834C11.0779 17.0519 11.0916 16.7003 11.1455 15.5453C11.1951 14.472 11.3834 13.8931 11.5408 13.5065C11.7478 12.9956 11.9993 12.6268 12.399 12.2443C12.8036 11.8577 13.1853 11.6222 13.72 11.4203C14.1247 11.2699 14.7349 11.09 15.854 11.0426C17.0622 10.9911 17.4266 10.9781 20.4993 10.9781H20.5ZM20.5 8.99971C17.3777 8.99971 16.9875 9.01276 15.7606 9.06426C14.5387 9.11576 13.6985 9.3046 12.9711 9.57516C12.2121 9.85808 11.5695 10.2316 10.932 10.8455C10.2894 11.4553 9.89844 12.0685 9.60231 12.7896C9.31912 13.4893 9.12147 14.2873 9.06756 15.4546C9.01366 16.6309 9 17.0038 9 19.9868C9 22.9698 9.01366 23.3427 9.06756 24.5149C9.12147 25.6822 9.31912 26.485 9.60231 27.1799C9.89916 27.9051 10.2894 28.519 10.932 29.1281C11.5695 29.7372 12.2121 30.1155 12.9668 30.3943C13.6992 30.6649 14.5344 30.8537 15.7562 30.9052C16.9824 30.9567 17.3734 30.9698 20.4957 30.9698C23.6179 30.9698 24.0089 30.9567 25.2351 30.9052C26.457 30.8537 27.2972 30.6649 28.0246 30.3943C28.7793 30.1155 29.4218 29.7379 30.0594 29.1281C30.6969 28.5183 31.0929 27.9051 31.3847 27.184C31.6679 26.4843 31.8656 25.6864 31.9195 24.519C31.9734 23.3475 31.9871 22.9739 31.9871 19.9909C31.9871 17.0079 31.9734 16.6351 31.9195 15.4629C31.8656 14.2955 31.6679 13.4927 31.3847 12.7978C31.1016 12.0679 30.7106 11.4546 30.0687 10.8449C29.4312 10.2358 28.7886 9.85739 28.0339 9.57859C27.3015 9.30804 26.4663 9.11919 25.2445 9.06769C24.014 9.01207 23.623 8.99902 20.5007 8.99902L20.5 8.99971Z" fill="#A78E74"/>
<path d="M20.5 10.9781C23.5727 10.9781 23.9363 10.9911 25.1446 11.0426C26.268 11.09 26.8739 11.2699 27.2785 11.4203C27.8133 11.6181 28.1992 11.8584 28.5989 12.2402C29.0035 12.6268 29.2501 12.9915 29.4614 13.5024C29.6188 13.889 29.8071 14.472 29.8567 15.5412C29.9106 16.7003 29.9242 17.0478 29.9242 19.9793C29.9242 22.9108 29.9106 23.2623 29.8567 24.4174C29.8071 25.4907 29.6188 26.0695 29.4614 26.4562C29.2544 26.967 29.0035 27.3358 28.6032 27.7176C28.1985 28.1042 27.8169 28.3398 27.2828 28.5416C26.8782 28.692 26.2672 28.8719 25.1489 28.9193C23.9356 28.9708 23.5719 28.9839 20.5036 28.9839C17.4352 28.9839 17.0672 28.9708 15.8583 28.9193C14.7349 28.8719 14.129 28.692 13.7243 28.5416C13.1896 28.3439 12.8036 28.1042 12.4033 27.7217C11.9986 27.3351 11.7521 26.9705 11.5408 26.4603C11.3834 26.0737 11.1951 25.49 11.1455 24.4215C11.0916 23.2623 11.0779 22.9149 11.0779 19.9834C11.0779 17.0519 11.0916 16.7003 11.1455 15.5453C11.1951 14.472 11.3834 13.8931 11.5408 13.5065C11.7478 12.9956 11.9993 12.6268 12.399 12.2443C12.8036 11.8577 13.1853 11.6222 13.72 11.4203C14.1247 11.2699 14.7349 11.09 15.854 11.0426C17.0622 10.9911 17.4266 10.9781 20.4993 10.9781H20.5ZM20.5 8.99971C17.3777 8.99971 16.9875 9.01276 15.7606 9.06426C14.5387 9.11576 13.6985 9.3046 12.9711 9.57516C12.2121 9.85808 11.5695 10.2316 10.932 10.8455C10.2894 11.4553 9.89844 12.0685 9.60231 12.7896C9.31912 13.4893 9.12147 14.2873 9.06756 15.4546C9.01366 16.6309 9 17.0038 9 19.9868C9 22.9698 9.01366 23.3427 9.06756 24.5149C9.12147 25.6822 9.31912 26.485 9.60231 27.1799C9.89916 27.9051 10.2894 28.519 10.932 29.1281C11.5695 29.7372 12.2121 30.1155 12.9668 30.3943C13.6992 30.6649 14.5344 30.8537 15.7562 30.9052C16.9824 30.9567 17.3734 30.9698 20.4957 30.9698C23.6179 30.9698 24.0089 30.9567 25.2351 30.9052C26.457 30.8537 27.2972 30.6649 28.0246 30.3943C28.7793 30.1155 29.4218 29.7379 30.0594 29.1281C30.6969 28.5183 31.0929 27.9051 31.3847 27.184C31.6679 26.4843 31.8656 25.6864 31.9195 24.519C31.9734 23.3475 31.9871 22.9739 31.9871 19.9909C31.9871 17.0079 31.9734 16.6351 31.9195 15.4629C31.8656 14.2955 31.6679 13.4927 31.3847 12.7978C31.1016 12.0679 30.7106 11.4546 30.0687 10.8449C29.4312 10.2358 28.7886 9.85739 28.0339 9.57859C27.3015 9.30804 26.4663 9.11919 25.2445 9.06769C24.014 9.01207 23.623 8.99902 20.5007 8.99902L20.5 8.99971Z" stroke="black"/>
<path d="M20.5001 14.3431C17.2391 14.3431 14.5927 16.8709 14.5927 19.9871C14.5927 23.1033 17.2384 25.631 20.5001 25.631C23.7617 25.631 26.4075 23.1033 26.4075 19.9871C26.4075 16.8715 23.7617 14.3431 20.5001 14.3431V14.3431ZM20.5001 23.6478C18.3841 23.6478 16.6684 22.0087 16.6684 19.9871C16.6684 17.9654 18.3841 16.3263 20.5001 16.3263C22.6161 16.3263 24.3317 17.9654 24.3317 19.9871C24.3317 22.0087 22.6161 23.6478 20.5001 23.6478Z" fill="#A78E74"/>
<path d="M28.0195 14.12C28.0195 14.8479 27.4021 15.4378 26.6403 15.4378C25.8784 15.4378 25.261 14.8479 25.261 14.12C25.261 13.3921 25.8784 12.8022 26.6403 12.8022C27.4021 12.8022 28.0195 13.3921 28.0195 14.12V14.12Z" fill="#A78E74"/>
</g>
<defs>
<clipPath id="clip0">
<rect x="9" y="9" width="23" height="21.9742" fill="white"/>
</clipPath>
</defs>
</svg>
