<svg width="35" height="35" viewBox="0 0 35 35" fill="none" xmlns="http://www.w3.org/2000/svg">
<rect x="0.5" y="0.5" width="34" height="34" rx="9.5" fill="#37231D" stroke="#37231D"/>
<g clip-path="url(#clip0)">
<path d="M17.0368 8.07046C20.2529 8.07046 20.6336 8.08412 21.8982 8.13802C23.0741 8.18762 23.7083 8.37593 24.1318 8.53334C24.6915 8.74034 25.0955 8.9919 25.5138 9.39152C25.9373 9.79618 26.1954 10.1778 26.4166 10.7126C26.5813 11.1172 26.7784 11.7275 26.8303 12.8466C26.8867 14.0598 26.901 14.4235 26.901 17.4918C26.901 20.5602 26.8867 20.9282 26.8303 22.1371C26.7784 23.2605 26.5813 23.8664 26.4166 24.2711C26.1999 24.8058 25.9373 25.1918 25.5183 25.5914C25.0948 25.9961 24.6953 26.2426 24.1363 26.4539C23.7128 26.6113 23.0733 26.7997 21.9027 26.8492C20.6329 26.9032 20.2522 26.9168 17.0406 26.9168C13.829 26.9168 13.4438 26.9032 12.1785 26.8492C11.0026 26.7997 10.3684 26.6113 9.94489 26.4539C9.38517 26.2469 8.98119 25.9961 8.56215 25.5957C8.13861 25.1911 7.88057 24.8094 7.65939 24.2754C7.49464 23.8707 7.29753 23.2598 7.24562 22.1414C7.1892 20.9282 7.17491 20.5645 7.17491 17.4962C7.17491 14.4278 7.1892 14.0598 7.24562 12.8509C7.29753 11.7275 7.49464 11.1216 7.65939 10.7169C7.87605 10.1821 8.13936 9.79618 8.55764 9.39584C8.98119 8.99118 9.38066 8.74465 9.94037 8.53334C10.3639 8.37593 11.0026 8.18762 12.174 8.13802C13.4386 8.08412 13.82 8.07046 17.0361 8.07046H17.0368ZM17.0368 5.99974C13.7688 5.99974 13.3603 6.0134 12.0762 6.0673C10.7972 6.12121 9.9178 6.31887 9.15647 6.60205C8.36204 6.89818 7.68948 7.28918 7.02219 7.93174C6.34963 8.56999 5.94038 9.21184 5.63043 9.96652C5.33402 10.6989 5.12714 11.5341 5.07072 12.756C5.01429 13.9872 5 14.3775 5 17.4997C5 20.622 5.01429 21.0123 5.07072 22.2392C5.12714 23.4611 5.33402 24.3013 5.63043 25.0287C5.94113 25.7877 6.34963 26.4302 7.02219 27.0677C7.68948 27.7053 8.36204 28.1013 9.15196 28.3931C9.91856 28.6763 10.7927 28.874 12.0716 28.9279C13.3551 28.9818 13.7643 28.9954 17.0323 28.9954C20.3003 28.9954 20.7096 28.9818 21.993 28.9279C23.2719 28.874 24.1514 28.6763 24.9127 28.3931C25.7026 28.1013 26.3752 27.706 27.0425 27.0677C27.7098 26.4295 28.1243 25.7877 28.4297 25.033C28.7261 24.3006 28.933 23.4654 28.9894 22.2435C29.0459 21.0173 29.0601 20.6263 29.0601 17.5041C29.0601 14.3818 29.0459 13.9915 28.9894 12.7646C28.933 11.5427 28.7261 10.7025 28.4297 9.97515C28.1333 9.21112 27.7241 8.56927 27.0523 7.93102C26.385 7.29349 25.7124 6.89746 24.9225 6.60565C24.1559 6.32246 23.2817 6.1248 22.0028 6.0709C20.7149 6.01268 20.3056 5.99902 17.0376 5.99902L17.0368 5.99974Z"
 fill="#ECDECE"/>
<path d="M17.0368 11.5926C13.6236 11.5926 10.8536 14.2383 10.8536 17.5C10.8536 20.7617 13.6229 23.4074 17.0368 23.4074C20.4508 23.4074 23.22 20.7617 23.22 17.5C23.22 14.239 20.4508 11.5926 17.0368 11.5926V11.5926ZM17.0368 21.3316C14.822 21.3316 13.0263 19.616 13.0263 17.5C13.0263 15.384 14.822 13.6683 17.0368 13.6683C19.2516 13.6683 21.0473 15.384 21.0473 17.5C21.0473 19.616 19.2516 21.3316 17.0368 21.3316Z"
 fill="#ECDECE"/>
<path d="M24.9075 11.359C24.9075 12.1209 24.2612 12.7383 23.4638 12.7383C22.6664 12.7383 22.0201 12.1209 22.0201 11.359C22.0201 10.5971 22.6664 9.97974 23.4638 9.97974C24.2612 9.97974 24.9075 10.5971 24.9075 11.359V11.359Z"
 fill="#ECDECE"/>
</g>
<defs>
<clipPath id="clip0">
<rect x="5" y="6" width="24.0737" height="23" fill="#ECDECE"/>
</clipPath>
</defs>
</svg>
