<svg width="35" height="35" viewBox="0 0 35 35" fill="none" xmlns="http://www.w3.org/2000/svg">
<rect x="0.5" y="0.5" width="34" height="34" rx="9.5" fill="#37231D" stroke="#37231D"/>
<path d="M17.2381 28C21.8803 28 20.2251 25.0693 20.5834 24.2267C20.578 23.5973 20.5727 22.992 20.5941 22.624C20.8882 22.7067 21.5821 23.0573 23.0154 24.4467C25.2282 26.6733 25.7938 28 27.5814 28H30.8718C31.9146 28 32.4575 27.5693 32.7289 27.208C32.9909 26.8587 33.2477 26.2453 32.9669 25.2907C32.2329 22.992 27.9517 19.0227 27.6856 18.604C27.7257 18.5267 27.7899 18.424 27.8234 18.3707H27.8207C28.6657 17.2573 31.8906 12.4387 32.3652 10.5107C32.3666 10.508 32.3679 10.504 32.3679 10.5C32.6246 9.62 32.3893 9.04933 32.1459 8.72667C31.7796 8.244 31.1967 8 30.4092 8H27.1187C26.017 8 25.1814 8.55333 24.7589 9.56267C24.0516 11.356 22.0648 15.044 20.5754 16.3493C20.5299 14.5 20.5606 13.088 20.5847 12.0387C20.6328 9.992 20.7879 8 18.6581 8H13.4865C12.1521 8 10.8753 9.45333 12.2577 11.1787C13.4664 12.6907 12.6923 13.5333 12.953 17.728C11.9368 16.6413 10.1292 13.7067 8.851 9.956C8.49268 8.94133 7.94984 8.00133 6.42163 8.00133H3.13121C1.79687 8.00133 1 8.72667 1 9.94133C1 12.6693 7.05538 28 17.2381 28V28ZM6.42163 10.0013C6.71176 10.0013 6.74118 10.0013 6.95644 10.6107C8.26538 14.4547 11.2015 20.1427 13.3461 20.1427C14.9572 20.1427 14.9572 18.496 14.9572 17.876L14.9558 12.94C14.8676 11.3067 14.2713 10.4933 13.8795 10L18.5698 10.0053C18.5725 10.028 18.5431 15.4653 18.5832 16.7827C18.5832 18.6533 20.0726 19.7253 22.3977 17.3787C24.8511 14.6173 26.5478 10.4893 26.616 10.3213C26.7163 10.0813 26.8032 10 27.1187 10H30.4092H30.4225C30.4212 10.004 30.4212 10.008 30.4198 10.012C30.119 11.412 27.1495 15.8733 26.1561 17.2587C26.14 17.28 26.1253 17.3027 26.1106 17.3253C25.6734 18.0373 25.3178 18.824 26.1708 19.9307H26.1721C26.2497 20.024 26.4516 20.2427 26.7457 20.5467C27.6602 21.488 30.7969 24.7067 31.075 25.9867C30.8905 26.016 30.6899 25.9947 27.5814 26.0013C26.9195 26.0013 26.4021 25.0147 24.4273 23.028C22.6517 21.3053 21.4992 20.6013 20.4497 20.6013C18.412 20.6013 18.5605 22.2507 18.5792 24.2453C18.5859 26.408 18.5725 25.724 18.5872 25.86C18.4682 25.9067 18.1273 26 17.2381 26C8.75473 26 3.23015 12.572 3.01757 10.0053C3.0911 9.99867 4.10323 10.0027 6.42163 10.0013V10.0013Z" 
fill="#ECDECE"/>
</svg>
