<svg width="26" height="28" viewBox="0 0 30 30" fill="none" xmlns="http://www.w3.org/2000/svg">
<path d="M20.125 22.0196V4.95321H7.875V22.0196H20.125ZM16.352 25.6725V24.4744H11.6492V25.6725H16.352V25.6725ZM18.648 1.30029C19.5961 1.30029 20.4163 1.66193 21.1085 2.38521C21.8007 3.10848 22.1472 3.96448 22.148 4.95321V24.4732C22.148 25.4627 21.8015 26.3187 21.1085 27.0412C20.4155 27.7636 19.5953 28.1253 18.648 28.1261H9.35083C8.40272 28.1261 7.58255 27.7644 6.89033 27.0412C6.19811 26.3179 5.85161 25.4619 5.85083 24.4732V4.95321C5.85083 3.96367 6.19733 3.10767 6.89033 2.38521C7.58333 1.66274 8.4035 1.3011 9.35083 1.30029H18.648V1.30029Z" 
fill="rgba(43, 23, 17, 0.9)"/>
</svg>
