<?xml version="1.0" encoding="UTF-8"?>
<!DOCTYPE svg PUBLIC "-//W3C//DTD SVG 1.1//EN" "http://www.w3.org/Graphics/SVG/1.1/DTD/svg11.dtd">
<!-- Creator: CorelDRAW X7 -->
<svg xmlns="http://www.w3.org/2000/svg" xml:space="preserve" width="500px" height="500px" version="1.1" style="shape-rendering:geometricPrecision; text-rendering:geometricPrecision; image-rendering:optimizeQuality; fill-rule:evenodd; clip-rule:evenodd"
viewBox="0 0 500 500"
 xmlns:xlink="http://www.w3.org/1999/xlink">
 <defs>
  <style type="text/css">
   <![CDATA[
    .str0 {stroke:#F5B2B6;stroke-width:0.566929}
    .str1 {stroke:#2B2A29;stroke-width:0.216}
    .fil1 {fill:#FEFEFE}
    .fil3 {fill:#2B2A29}
    .fil0 {fill:#F5B2B6}
    .fil5 {fill:#555556}
    .fil2 {fill:#3C3C3E}
    .fil4 {fill:#232324}
   ]]>
  </style>
 </defs>
 <g id="Слой_x0020_1">
  <metadata id="CorelCorpID_0Corel-Layer"/>
  <path class="fil0 str0" d="M287 233c-7,6 -86,9 -90,3 -9,15 -18,27 -17,43 -8,13 -6,27 -5,39l15 2c41,7 81,5 121,-1l0 -16c-4,-17 -10,-34 -18,-50l-6 -20z"/>
  <path class="fil1" d="M231 163c0,-6 4,-6 1,-10 -1,-2 -3,-2 -6,-6 -14,-14 -41,-20 -60,-23 1,18 1,46 18,56 16,9 43,0 47,-17z"/>
  <path class="fil1" d="M300 125c-7,0 -21,7 -27,11 -3,2 -7,7 -10,9 -4,5 -4,7 -6,12l-1 4 7 11c10,9 27,17 40,7 10,-8 13,-32 13,-44 0,-5 0,-10 0,-14 -1,-10 -2,-6 -3,-10l0 11c-3,1 -6,0 -8,1 -1,0 -2,1 -5,2z"/>
  <path class="fil2" d="M162 69l-2 0c-1,10 1,7 4,13 2,5 5,36 2,41l-3 -6 -1 2 -4 -3c-3,11 6,3 6,26 1,15 2,14 5,27 2,2 8,10 9,12 29,18 39,-3 63,-11 5,-2 25,8 30,12 17,12 31,1 34,2 3,7 -9,42 -4,46 4,-5 7,-36 8,-43 1,-12 2,-10 6,-20 2,-6 5,-16 3,-22 -1,-5 1,-10 -2,-10 0,12 -3,36 -13,44 -13,10 -30,2 -40,-7 -4,-2 0,-2 -5,0l-1 -2c-3,-1 -7,-3 -10,-5 -6,-2 -5,1 -11,3 -2,3 -1,2 -5,2 0,-4 3,-6 0,-7 -4,17 -31,26 -47,17 -17,-10 -17,-38 -18,-56 19,3 46,9 60,23l4 3 1 -3c-10,-7 -13,-11 -26,-17 -7,-3 -32,-8 -33,-9l-3 -53 -2 -1c-1,4 1,4 -2,7 -3,-2 -2,-1 -3,-5z"/>
  <path class="fil3" d="M160 277c-2,9 -13,28 -17,39 -2,7 -12,39 -12,44 -1,5 -2,4 -1,10l5 -8c0,-8 18,-63 23,-70l-8 96 2 0c3,-32 6,-80 15,-108l0 -6c-1,0 -1,0 -1,0l-3 1c-2,0 -2,1 -3,2z"/>
  <path class="fil2" d="M330 326c1,4 9,29 10,34 3,15 -1,26 -3,40 0,3 -1,38 9,25 4,-4 11,-30 2,-13 -10,18 -7,-9 -7,-15 1,-13 5,-23 3,-37 -4,-20 -15,-46 -22,-66 -11,-33 -12,-41 -10,-76 0,-9 0,-27 -4,-5 -1,12 1,27 -2,37 -3,10 -1,9 3,19 5,12 8,21 11,33 2,10 11,73 12,75 5,-14 -5,-41 -2,-51z"/>
  <path class="fil2" d="M165 336c7,10 58,3 70,2 7,0 69,-5 70,-8 -13,-3 -106,11 -127,8 -2,-1 -11,-3 -13,-2z"/>
  <path class="fil3 str1" d="M160 277c1,-1 1,-2 3,-2l3 -1c0,0 0,0 1,0l0 6c4,-8 8,-23 12,-32 3,-8 3,-32 0,-40 1,9 2,20 0,29 0,0 0,-1 -1,-1 0,0 0,0 0,-1l-1 -3c-1,9 3,10 -3,19 -3,4 -5,8 -6,14 -2,-3 1,-9 1,-15l-2 0c0,-3 2,-71 4,-73 -4,-2 1,2 1,3 5,6 0,7 6,16 -1,-7 -2,-8 -3,-15l3 0c-1,-2 -7,-10 -9,-12 1,15 -4,65 -4,83 0,16 -4,17 -5,25z"/>
  <path class="fil3" d="M132 455l0 1c-3,0 -3,1 -4,-1l4 0zm-13 -4c1,3 0,0 1,2 0,1 1,1 1,2l-3 1c8,5 2,-6 10,3 -5,1 -19,-1 -22,0 1,4 1,3 5,4l-1 -2 18 1c-1,3 -13,0 -16,0 2,1 1,1 4,2 5,1 11,1 15,0l1 -5 2 3c1,1 1,0 3,0l1 -4c-2,1 -2,0 -1,1 -1,-4 1,-7 -3,-9 2,4 2,4 1,9 -1,-2 -1,-2 -1,-3 -2,-2 1,1 -2,-1 -1,-2 -3,-1 -7,-1l1 -6 5 1 -2 -2c8,-1 10,5 9,12 4,-3 2,-8 -1,-11 -3,-4 -6,-2 -10,-4 -3,-13 8,-40 0,-50 -3,4 -2,10 -2,15 0,5 -1,8 -2,12 -1,10 1,21 -1,31l-3 -1z"/>
  <path class="fil3" d="M343 178c-1,19 -5,22 -3,34 1,6 3,14 7,27 10,28 4,58 9,63 4,-12 0,-49 -4,-61 -3,-9 -6,-17 -8,-27 -2,-12 2,-20 1,-31l0 -7 -2 2z"/>
  <path class="fil2" d="M114 370c4,-8 12,-117 11,-121 -6,4 -6,51 -7,60 -1,12 -8,54 -4,61z"/>
  <path class="fil3" d="M349 103c5,8 0,24 1,35 1,-5 1,-8 4,-10 -1,-22 1,-36 -7,-57 -7,-17 -28,-24 -44,-23 10,6 27,6 35,16 6,8 11,28 11,39z"/>
  <path class="fil2" d="M169 250c-1,-8 1,-16 2,-25 1,-7 -1,-22 2,-27 3,4 2,12 2,17 1,6 2,11 2,17l1 3c0,1 0,1 0,1 1,0 1,1 1,1 2,-9 1,-20 0,-29l-1 -12c-6,-9 -1,-10 -6,-16 0,-1 -5,-5 -1,-3 -2,2 -4,70 -4,73l2 0z"/>
  <path class="fil3 str1" d="M295 122l4 0 1 3c3,-1 4,-2 5,-2 2,-1 5,0 8,-1l0 -11c1,4 2,0 3,10 0,4 0,9 0,14 3,0 1,5 2,10 3,-5 1,-16 2,-22 3,-13 -5,-17 -5,-17 -2,-8 0,-29 -5,-34l2 25c0,3 1,9 1,11 0,3 -1,10 -2,12 -3,-4 -4,-53 -3,-55 2,2 1,3 2,7 0,-4 1,-10 -2,-12 -7,4 2,50 -1,59 -6,2 -6,0 -12,3z"/>
  <path class="fil2" d="M152 66l4 -4 -7 1c-15,11 -15,8 -22,32 -5,15 -5,31 -2,47l1 1c0,0 0,1 0,1 0,0 0,0 0,1 6,-6 -4,-22 4,-49 4,-12 9,-26 22,-30z"/>
  <path class="fil1" d="M169 250c0,6 -3,12 -1,15 1,-6 3,-10 6,-14 6,-9 2,-10 3,-19 0,-6 -1,-11 -2,-17 0,-5 1,-13 -2,-17 -3,5 -1,20 -2,27 -1,9 -3,17 -2,25z"/>
  <path class="fil2" d="M246 154c-4,0 -7,-2 -10,0 3,2 3,1 6,4l6 0 6 1 3 -2c2,-5 2,-7 6,-12 3,-2 7,-7 10,-9 6,-4 20,-11 27,-11l-1 -3 -4 0c-7,1 -20,7 -25,12 -10,7 -11,12 -16,21l-8 -1z"/>
  <path class="fil2" d="M257 393c5,-3 9,-8 14,-11 9,-7 21,-13 32,-19l16 -8c-9,-4 -59,25 -62,38z"/>
  <path class="fil3" d="M357 313c-7,6 2,64 10,71 1,-6 -6,-25 -7,-33 -1,-10 -1,-29 -3,-38z"/>
  <path class="fil3" d="M343 178l2 -2 0 7c4,-6 4,-19 5,-26 1,-6 1,-10 1,-15 1,-5 3,-10 3,-14 -3,2 -3,5 -4,10 -1,-11 4,-27 -1,-35 0,23 -1,19 -2,39 0,6 1,11 -1,18 -1,2 -4,16 -3,18z"/>
  <path class="fil2" d="M224 396l2 0 0 -2c-14,-19 -53,-29 -62,-26 11,7 36,4 60,28z"/>
  <path class="fil2" d="M102 446c2,-5 1,-22 4,-31 2,-7 4,-26 4,-31 -5,0 -6,8 -6,13 1,13 -9,43 -2,49z"/>
  <path class="fil2" d="M130 239c4,-8 2,-34 2,-47 1,-14 3,-36 -1,-47 -3,8 -3,82 -1,94z"/>
  <path class="fil2" d="M355 441c-2,3 -3,3 -6,4l8 -1c8,-3 11,-14 15,-21 6,-12 0,-27 -4,-28 -2,9 8,11 1,26 -3,5 -7,19 -14,20z"/>
  <path class="fil2" d="M109 434c-1,5 -2,11 1,15l1 -15c3,3 4,12 4,16l-3 3 6 3 3 -1c0,-1 -1,-1 -1,-2 -1,-2 0,1 -1,-2 0,-4 -3,-23 -5,-26l-2 4c0,0 0,1 0,1 -2,2 -2,-1 -3,4z"/>
  <path class="fil1" d="M236 168c6,-2 5,-5 11,-3 3,2 7,4 10,5l2 1c-4,-4 -3,-8 -7,-10l-3 -2c0,0 -1,0 -1,-1l-6 0 -6 -1c-1,5 -2,5 -3,10l3 1z"/>
  <path class="fil4" d="M310 72l0 0c-1,-4 0,-5 -2,-7 -1,2 0,51 3,55 1,-2 2,-9 2,-12 0,-2 -1,-8 -1,-11l-2 -25z"/>
  <path class="fil3" d="M149 63l7 -1 -4 4c10,-3 9,-4 13,-2 -1,4 -1,4 -3,5 1,4 0,3 3,5 3,-3 1,-3 2,-7l2 1 0 -6 3 -1 1 -3 -5 0c-2,0 -6,1 -9,1 -2,0 -3,1 -5,1 -4,1 -2,1 -5,3z"/>
  <path class="fil2" d="M346 436l0 3 3 -1c8,-4 15,-18 10,-27l-3 -3c-2,9 4,9 -1,18 -2,3 -6,10 -9,10z"/>
  <path class="fil5" d="M255 138c4,-1 10,-29 8,-31 -6,7 -9,26 -8,31z"/>
  <path class="fil2" d="M188 315c-2,-4 -5,-11 -9,-12 -2,3 11,25 14,27 1,-5 -3,-11 -5,-15z"/>
  <path class="fil2" d="M289 316c2,-2 4,-9 6,-13 2,-5 6,-9 4,-14 -4,2 -13,22 -10,27z"/>
  <path class="fil3" d="M231 163c3,1 0,3 0,7 4,0 3,1 5,-2l-3 -1c1,-5 2,-5 3,-10l6 1c-3,-3 -3,-2 -6,-4 3,-2 6,0 10,0 -1,-3 -6,-1 -9,-2 -3,-1 -3,-3 -6,-5l-1 3 -4 -3c3,4 5,4 6,6 3,4 -1,4 -1,10z"/>
  <path class="fil2" d="M230 141c2,-6 -1,-24 -6,-28 -1,4 3,25 6,28z"/>
  <path class="fil5" d="M240 403c5,-1 15,1 14,-6l-14 2c-3,5 -4,7 1,11 2,-4 2,-4 -1,-7z"/>
  <path class="fil3" d="M340 441c4,-1 2,0 3,0l1 4c-3,2 0,0 -4,0 2,2 0,2 4,2 0,0 3,0 4,-1 4,0 7,1 9,-2l-8 1c3,-1 4,-1 6,-4l-11 2c2,-4 2,0 5,-5l-3 1 0 -3c0,1 -3,2 -4,3 -2,1 0,0 -2,2z"/>
  <path class="fil3" d="M135 362l-5 8c-1,-6 0,-5 1,-10 -3,2 -6,18 -5,21 4,-3 8,-14 9,-19z"/>
  <path class="fil3" d="M248 158c0,1 1,1 1,1l3 2c4,2 3,6 7,10l-2 -1 1 2c5,-2 1,-2 5,0l-7 -11 1 -4 -3 2 -6 -1z"/>
  <path class="fil1" d="M132 455c3,2 0,-1 2,1 0,1 0,1 1,3 1,-5 1,-5 -1,-9l-3 -1 -5 -1 -1 6c4,0 6,-1 7,1z"/>
  <path class="fil2" d="M238 275c6,1 8,-7 2,-8 -3,3 -3,4 -2,8z"/>
  <path class="fil3 str1" d="M101 460l4 0c0,-4 0,-8 -5,-8l1 8z"/>
  <path class="fil3 str1" d="M111 463l1 -1c3,0 15,3 16,0l-18 -1 1 2z"/>
  <path class="fil4" d="M131 449l3 1c4,2 2,5 3,9 -1,-1 -1,0 1,-1l0 1c1,-7 -1,-13 -9,-12l2 2z"/>
  <path class="fil5" d="M139 239c2,3 6,6 7,0 -1,0 -1,-1 -3,-1 -6,0 -1,-1 -4,1z"/>
  <path class="fil3" d="M224 396c2,3 4,4 8,3 -2,-3 -3,-4 -6,-5l0 2 -2 0z"/>
  <path class="fil5" d="M325 234c2,4 5,4 6,-1 -6,-3 -5,0 -6,1z"/>
  <path class="fil2" d="M246 68c3,-2 2,-2 1,-6 -4,2 -6,4 -1,6z"/>
  <path class="fil2" d="M235 69c2,-6 1,-5 -3,-6 0,1 -2,0 0,4 2,3 2,1 3,2z"/>
  <path class="fil2" d="M340 445c4,0 1,2 4,0l-1 -4c-1,0 1,-1 -3,0l0 4z"/>
  <path class="fil3 str1" d="M132 455l-4 0c1,2 1,1 4,1l0 -1z"/>
  <ellipse class="fil0 str0" transform="matrix(0.957008 0.29006 -0.29006 0.957008 196.309 168.834)" rx="15" ry="12"/>
  <ellipse class="fil0 str0" transform="matrix(-0.957008 0.29006 0.29006 0.957008 289.759 167.696)" rx="15" ry="12"/>
 </g>
</svg>
