
<svg xmlns="http://www.w3.org/2000/svg"  width="80px" height="80px" viewBox="0 0 500 500">
 
 <g>
  <g>
   <path fill="rgb(43, 23, 17)" d="M145 420c0,-1 3,-15 3,-15l6 12 -9 3zm-63 33l4 -28c4,1 4,10 18,10 8,0 14,-3 20,-8 8,-7 18,-25 20,-36 1,4 -3,23 -4,27 -6,19 -20,22 -36,25 -10,3 -14,6 -22,10zm46 -35c-4,11 -24,19 -35,10 -8,-6 -4,-10 -1,-17 1,-3 7,-18 9,-19 1,9 -2,16 5,25 10,11 17,2 22,1zm81 -78c4,11 0,52 -12,56 -3,1 5,-24 6,-27 1,-4 6,-28 6,-29zm132 61c-31,-10 -26,-60 -18,-84 6,-16 5,6 5,11 1,18 -2,35 3,53 3,10 7,13 10,20zm-134 -64c-2,18 -8,32 -11,49 -4,16 3,10 -10,20 -10,7 -2,-15 -1,-18 5,-16 11,-29 14,-47 1,-4 3,-26 3,-27 1,-4 5,18 5,23zm135 -11c1,1 22,33 24,37 4,7 7,14 9,22 1,5 3,24 -1,27 -4,3 -16,-5 -19,-10 -5,-7 -7,-14 -8,-22 -1,-5 -5,-54 -5,-54zm-143 -1c-3,34 -18,56 -20,74 -1,5 2,14 -6,13 -6,0 -6,-23 -5,-29 4,-19 12,-38 18,-57 1,-3 7,-30 7,-30 0,0 5,10 5,11 2,4 1,14 1,18zm134 -27c8,11 8,69 12,86 2,12 5,14 10,23 -19,-4 -23,-31 -24,-47 0,-11 0,-23 0,-35 0,-8 -5,-21 2,-27zm-168 86l0 -1c-5,-2 17,-64 20,-74 3,-8 4,-18 6,-25 6,9 -22,83 -26,100zm0 -19l0 0c-4,-5 18,-88 23,-97l0 0c9,3 -20,87 -23,97zm234 49l-22 0c1,-10 5,-11 4,-23 -2,-20 -16,-40 -27,-56 -9,-12 -14,-22 -17,-37 -2,-13 1,-34 7,-46 0,1 -1,23 -1,27 0,8 0,16 2,25 7,34 30,46 36,73 4,15 9,24 18,37zm-218 27c-33,-27 -40,-61 -27,-100 14,-40 28,-64 31,-109 3,-2 -1,28 -1,29 -5,24 -16,46 -21,76 -8,42 -5,67 18,104zm2 -243c5,46 -9,82 -25,123 -8,22 -14,37 -14,61 0,13 -20,49 -35,34 -7,-7 -7,-23 -4,-31 3,-9 9,-15 15,-23 31,-40 51,-114 63,-164zm147 20c2,1 1,0 1,2l-2 -1 1 -1zm-29 1c0,3 -1,8 5,7 5,-1 3,-5 3,-8l4 1c3,6 -4,12 -10,11 -7,-1 -8,-13 -2,-11zm-75 0c7,-2 6,12 -5,11 -8,-1 -11,-13 -3,-12 0,4 -1,8 4,8 6,0 4,-5 4,-7zm-5 -93c2,-3 3,-4 7,-3 2,0 5,2 7,3 -2,1 -1,0 -2,1 -2,1 0,1 -2,1 -5,-2 -4,-1 -10,-2zm19 -7c2,2 6,8 7,10 -5,-2 -5,-2 -10,-3 -1,-1 -2,-3 -3,-5 -2,-2 -3,-2 -5,-3 2,-5 8,-1 11,1zm-13 -9c10,-1 4,2 0,4 -7,4 -7,7 -12,12 -7,7 -14,16 -19,25 -10,19 -15,47 -22,68 -12,40 -26,95 -49,130 -7,11 6,-19 7,-21 4,-12 6,-23 9,-35 3,-12 7,-23 10,-35 3,-12 5,-24 9,-36 7,-26 36,-107 67,-112zm99 -18l-1 -1 1 1c25,23 46,56 54,89 6,20 7,44 6,66 0,11 -1,22 -2,34l-3 32c0,-56 4,-88 -18,-142 -4,-9 -9,-19 -14,-28 -4,-8 -11,-17 -15,-25 -6,-10 -7,-16 -17,-24 -14,-13 -21,-9 -28,-11 7,-6 19,1 26,2l2 1 -1 -1 -14 -8c17,-3 42,16 52,28 5,6 25,50 23,56 -8,-15 -11,-24 -22,-39 -6,-9 -20,-25 -29,-30zm-32 -15c2,-3 11,-5 14,-5 6,-1 11,1 16,3 7,3 17,10 21,17 -3,-1 -7,-5 -10,-7 -29,-18 -37,-6 -41,-8zm-18 15c0,2 0,1 1,1 39,-29 76,61 86,88 22,57 16,109 15,168l-5 -30c-4,-31 -4,-65 -14,-93 -6,-17 -39,-81 -52,-91 -1,0 -1,0 -1,1l15 22c-5,-5 -18,-22 -22,-27 -6,-7 -24,-23 -32,-13 4,2 8,-1 16,3 15,8 23,21 32,35 12,16 26,35 35,53 20,44 17,100 27,149 -10,-15 -22,-30 -28,-48 -5,-17 -6,-52 -3,-69l9 16c5,-17 -34,-58 -45,-72 -8,-11 -29,-44 -37,-52 -5,-6 -19,-9 -19,-1 16,4 9,-9 32,25 3,4 23,33 23,35 -5,1 -30,7 -30,13 8,4 26,-6 36,-6l11 13c1,1 1,1 2,3l1 2c-2,0 -3,1 -6,0 -2,-1 0,-1 -2,-1 -1,-1 -2,0 -2,-1 -5,0 -31,-6 -32,5l4 -1 -4 7 1 1 6 -6c3,4 1,12 12,11 10,-1 8,-7 10,-12l9 3c-8,14 -30,7 -33,9l-1 1 25 2 -1 -1 7 -2 0 -2 1 1 12 -7c12,6 4,31 2,41 -3,11 -6,32 -11,41 -10,15 -40,44 -59,46 -19,1 -22,-5 -36,-16 -9,-7 -20,-16 -26,-25 -9,-13 -10,-25 -13,-40 -3,-12 -2,-10 -1,-22 1,-6 -1,-21 0,-25 2,0 6,2 8,3 2,3 -3,2 1,3 5,1 0,-4 11,5l27 -3c-7,-2 -29,5 -35,-8l8 -4c2,4 0,11 11,12 11,1 9,-7 11,-11l6 6 1 0 -3 -8 1 1 1 0 0 -1c-7,-11 -23,-4 -31,-4 -1,1 -1,0 -2,1 -1,0 0,0 -2,1l-11 3 -2 3 0 0c-6,-37 0,-59 21,-87 4,-5 8,-4 10,-6l-4 0 0 -2 18 3 -1 -2 4 1 1 -2 9 4c1,-2 -11,-40 -40,-13 -12,11 -23,29 -30,44 -20,40 -23,72 -36,113 0,-1 1,-34 1,-38 0,-13 -3,-24 -3,-36 -3,-37 26,-84 59,-99 23,-12 39,-7 55,12 2,-4 -9,-14 -11,-15 -19,-13 -43,-5 -59,7 -22,17 -35,38 -42,64l0 0c-4,2 14,-38 16,-41 8,-15 13,-23 26,-34 16,-14 43,-26 64,-18 10,3 10,7 16,13 -1,-15 -21,-20 -34,-20 -17,1 -24,7 -39,14 13,-12 20,-22 39,-24 23,-4 28,6 40,21 2,-4 -9,-16 -13,-19 -12,-9 -17,-5 -28,-6 1,-2 10,-5 13,-6 5,-2 10,0 15,2 10,5 13,12 16,22 2,-8 -8,-23 -15,-25 11,-1 21,13 25,14 -1,-7 -9,-13 -15,-17 10,-1 35,8 42,15 -8,1 -22,4 -25,12 8,-3 8,-7 19,-8 6,-1 19,1 20,7 -6,1 -16,-8 -30,2 -7,5 -13,9 -19,17zm-201 369l0 4 4 0c8,-22 43,-12 59,-32 5,-6 7,-13 18,-12 4,3 14,17 22,24 5,4 24,18 30,15 0,0 -18,-16 -20,-19 -3,-3 -15,-21 -14,-25 0,0 18,-9 22,-13 7,-5 12,-12 15,-20 9,-25 1,-38 -1,-61 13,15 33,33 53,33 21,0 42,-18 55,-33 -7,30 -14,66 19,83 14,7 30,12 45,12 9,1 18,1 27,2 6,1 18,6 22,6 1,-2 -22,-11 -24,-12 -9,-5 -12,-13 -16,-22 -8,-22 -8,-42 -6,-65 5,-48 11,-90 3,-138 -5,-38 -16,-75 -43,-105 -30,-32 -58,-46 -102,-37 -29,5 -65,43 -81,67 -9,15 -18,33 -23,50 -8,25 -3,43 -1,67 3,44 -4,85 -24,124 -8,16 -18,32 -25,49 -10,22 -10,36 -14,58z"/>
   <path fill="#FEFEFE" d="M183 198c-12,50 -32,124 -63,164 -6,8 -12,14 -15,23 -3,8 -3,24 4,31 15,15 35,-21 35,-34 0,-24 6,-39 14,-61 16,-41 30,-77 25,-123z"/>
   <path fill="#FEFEFE" d="M227 110c-31,5 -60,86 -67,112 -4,12 -6,24 -9,36 -3,12 -7,23 -10,35 -3,12 -5,23 -9,35 -1,2 -14,32 -7,21 23,-35 37,-90 49,-130 7,-21 12,-49 22,-68 5,-9 12,-18 19,-25 5,-5 5,-8 12,-12 4,-2 10,-5 0,-4z"/>
   <path fill="#FEFEFE" d="M326 92c-2,0 -2,0 -3,-1 -1,-1 -1,-1 -2,-2 -2,-1 -5,-2 -6,-4 -7,-1 -19,-8 -26,-2 7,2 14,-2 28,11 10,8 11,14 17,24 4,8 11,17 15,25 5,9 10,19 14,28 22,54 18,86 18,142l3 -32c1,-12 2,-23 2,-34 1,-22 0,-46 -6,-66 -8,-33 -29,-66 -54,-89z"/>
   <path fill="#FEFEFE" d="M375 385c-2,-8 -5,-15 -9,-22 -2,-4 -23,-36 -24,-37 0,0 4,49 5,54 1,8 3,15 8,22 3,5 15,13 19,10 4,-3 2,-22 1,-27z"/>
   <path fill="#FEFEFE" d="M199 325c0,-4 1,-14 -1,-18 0,-1 -5,-11 -5,-11 0,0 -6,27 -7,30 -6,19 -14,38 -18,57 -1,6 -1,29 5,29 8,1 5,-8 6,-13 2,-18 17,-40 20,-74z"/>
   <path fill="#FEFEFE" d="M181 441c-23,-37 -26,-62 -18,-104 5,-30 16,-52 21,-76 0,-1 4,-31 1,-29 -3,45 -17,69 -31,109 -13,39 -6,73 27,100z"/>
   <path fill="#FEFEFE" d="M399 414c-9,-13 -14,-22 -18,-37 -6,-27 -29,-39 -36,-73 -2,-9 -2,-17 -2,-25 0,-4 1,-26 1,-27 -6,12 -9,33 -7,46 3,15 8,25 17,37 11,16 25,36 27,56 1,12 -3,13 -4,23l22 0z"/>
   <path fill="#FEFEFE" d="M333 298c-7,6 -2,19 -2,27 0,12 0,24 0,35 1,16 5,43 24,47 -5,-9 -8,-11 -10,-23 -4,-17 -4,-75 -12,-86z"/>
   <path fill="#FEFEFE" d="M341 401c-3,-7 -7,-10 -10,-20 -5,-18 -2,-35 -3,-53 0,-5 1,-27 -5,-11 -8,24 -13,74 18,84z"/>
   <path fill="#FEFEFE" d="M82 453c8,-4 12,-7 22,-10 16,-3 30,-6 36,-25 1,-4 5,-23 4,-27 -2,11 -12,29 -20,36 -6,5 -12,8 -20,8 -14,0 -14,-9 -18,-10l-4 28z"/>
   <path fill="#FEFEFE" d="M316 85c2,0 10,5 10,7 9,5 23,21 29,30 11,15 14,24 22,39 2,-6 -18,-50 -23,-56 -10,-12 -35,-31 -52,-28l14 8z"/>
   <path fill="#FEFEFE" d="M207 337c0,-5 -4,-27 -5,-23 0,1 -2,23 -3,27 -3,18 -9,31 -14,47 -1,3 -9,25 1,18 13,-10 6,-4 10,-20 3,-17 9,-31 11,-49z"/>
   <path fill="#FEFEFE" d="M128 418c-5,1 -12,10 -22,-1 -7,-9 -4,-16 -5,-25 -2,1 -8,16 -9,19 -3,7 -7,11 1,17 11,9 31,1 35,-10z"/>
   <path fill="#FEFEFE" d="M165 365c3,-10 32,-94 23,-97l0 0c-5,9 -27,92 -23,97l0 0z"/>
   <path fill="rgb(43, 23, 17)" d="M241 309c4,10 13,12 23,12 11,0 17,-2 22,-12 -8,-6 -15,-2 -23,-2 -8,0 -13,-4 -22,2z"/>
   <path fill="#FEFEFE" d="M241 309c9,-6 14,-2 22,-2 8,0 15,-4 23,2 -5,10 -11,12 -22,12 -10,0 -19,-2 -23,-12zm-2 -3c1,-2 8,-8 10,-9 7,-5 7,-1 15,-1 7,0 7,-4 14,1 3,1 10,7 10,9 -3,1 -9,-2 -12,-3 -4,-1 -9,2 -13,2 -4,0 -8,-3 -12,-2 -3,1 -9,4 -12,3zm13 -14c-5,2 -9,7 -13,10 -3,3 -5,1 -2,5 1,2 2,5 4,7 7,11 24,11 36,8 6,-2 8,-6 11,-12 6,-10 5,-3 -2,-10 -15,-15 -16,-5 -24,-6 -4,-1 -6,-3 -10,-2z"/>
   <path fill="rgb(43, 23, 17)" d="M192 198c0,0 27,2 32,3 5,2 9,3 14,4 3,1 16,2 8,-3 -6,-4 -19,-9 -26,-10 -6,-1 -26,0 -28,6z"/>
   <path fill="#FEFEFE" d="M239 306c3,1 9,-2 12,-3 4,-1 8,2 12,2 4,0 9,-3 13,-2 3,1 9,4 12,3 0,-2 -7,-8 -10,-9 -7,-5 -7,-1 -14,-1 -8,0 -8,-4 -15,1 -2,1 -9,7 -10,9z"/>
   <path fill="#FEFEFE" d="M165 384c4,-17 32,-91 26,-100 -2,7 -3,17 -6,25 -3,10 -25,72 -20,74l0 1z"/>
   <path fill="#FEFEFE" d="M209 340c0,1 -5,25 -6,29 -1,3 -9,28 -6,27 12,-4 16,-45 12,-56z"/>
   <path fill="rgb(43, 23, 17)" d="M272 104c5,1 9,-10 23,-3 9,4 17,12 19,13 -3,-7 -19,-24 -33,-18 -3,1 -9,5 -9,8z"/>
   <path fill="#FEFEFE" d="M294 77c4,2 12,-10 41,8 3,2 7,6 10,7 -4,-7 -14,-14 -21,-17 -5,-2 -10,-4 -16,-3 -3,0 -12,2 -14,5z"/>
   <path fill="rgb(43, 23, 17)" d="M226 219c0,2 2,7 -4,7 -5,0 -4,-4 -4,-8 -8,-1 -5,11 3,12 11,1 12,-13 5,-11z"/>
   <path fill="rgb(43, 23, 17)" d="M301 219c-6,-2 -5,10 2,11 6,1 13,-5 10,-11l-4 -1c0,3 2,7 -3,8 -6,1 -5,-4 -5,-7z"/>
   <path fill="#FEFEFE" d="M229 118c2,1 3,1 5,3 1,2 2,4 3,5 5,1 5,1 10,3 -1,-2 -5,-8 -7,-10 -3,-2 -9,-6 -11,-1z"/>
   <path fill="#FEFEFE" d="M154 417l-6 -12c0,0 -3,14 -3,15l9 -3z"/>
   <path fill="rgb(43, 23, 17)" d="M321 212l2 1c0,-1 0,-1 0,-2 -2,0 -4,-1 -6,-2 -3,0 -5,0 -8,0 -3,-1 -12,0 -13,3 3,0 8,-2 13,-1 4,0 8,1 12,1z"/>
   <path fill="rgb(43, 23, 17)" d="M205 211c-1,2 -1,1 0,2l2 -1c9,-1 11,-2 21,-1 2,1 2,1 4,0 -3,-2 -10,-3 -14,-2 -9,0 -10,2 -13,2z"/>
   <path fill="#FEFEFE" d="M221 126c6,1 5,0 10,2 2,0 0,0 2,-1 1,-1 0,0 2,-1 -2,-1 -5,-3 -7,-3 -4,-1 -5,0 -7,3z"/>
   <path fill="rgb(43, 23, 17)" d="M257 327c3,2 10,1 14,0 -4,-1 -10,-2 -14,0z"/>
   <path fill="rgb(43, 23, 17)" d="M249 281c-3,-6 0,-6 0,-9 -4,1 -7,8 0,9z"/>
   <path fill="rgb(43, 23, 17)" d="M279 280c6,-1 3,-7 -1,-8 0,2 1,1 1,3 1,2 0,3 0,5z"/>
   <path fill="rgb(43, 23, 17)" d="M267 282c1,0 7,-2 8,-3 -3,-3 -6,0 -8,3z"/> 
  </g>
  <path fill="#a1896b" d="M211 306l19 0 18 18 15 2 22 -4 9 -16 20 0c-12,18 -31,46 -56,44 -24,-7 -38,-23 -47,-44z"/>
  <path fill="#a1896b" d="M211 306l19 0 20 -16 13 2 14 -2 19 16 18 0c-10,-9 -13,-19 -29,-23l-37 1 -12 1c-11,4 -19,12 -25,21z"/>
 </g>
</svg>



  
   