<?xml version="1.0" encoding="UTF-8"?>
<!DOCTYPE svg PUBLIC "-//W3C//DTD SVG 1.1//EN" "http://www.w3.org/Graphics/SVG/1.1/DTD/svg11.dtd">
<!-- Creator: CorelDRAW X7 -->
<svg xmlns="http://www.w3.org/2000/svg" xml:space="preserve" width="80px" height="80px" version="1.1" style="shape-rendering:geometricPrecision; text-rendering:geometricPrecision; image-rendering:optimizeQuality; fill-rule:evenodd; clip-rule:evenodd"
viewBox="0 0 500 500"
 xmlns:xlink="http://www.w3.org/1999/xlink">
 
 
 <g id="Слой_x0020_1">
  <metadata id="CorelCorpID_0Corel-Layer"/>
  <path fill="rgb(43, 23, 17)" d="M180 99l4 -5c-3,4 6,14 4,18 -8,14 -14,24 -21,38 -40,86 -49,179 -7,287l-17 -11c-32,-110 -16,-182 6,-258 5,-15 23,-54 31,-69z"/>
  <path fill="rgb(43, 23, 17)" d="M354 96l-8 -4c1,3 -9,3 -1,26 7,21 13,42 18,63 20,83 22,164 -8,263l12 -10c26,-107 26,-161 3,-259 -3,-11 -12,-68 -16,-79z"/>
  <path fill="rgb(43, 23, 17)" d="M235 312l27 13 24 -6c-6,10 -23,18 -23,27 -3,33 -3,63 -17,92l-6 -1c12,-26 19,-61 15,-90 -1,-13 -11,-24 -20,-35z"/>
  <polygon fill="rgb(43, 23, 17)" points="274,197 283,189 285,201 278,210 "/>
  <path fill="#a1896b" d="M202 279c41,-17 80,-17 117,0 21,12 8,53 -12,58l-40 9 25 -29 -4 -3 -26 6 -34 -14c8,13 16,27 19,42l-5 1 -9 -1 -27 -19c-15,-12 -21,-38 -4,-50z"/>
 </g>
</svg>
