<svg width="50" height="50" viewBox="0 0 50 50" fill="none" xmlns="http://www.w3.org/2000/svg">
<path d="M25 0C11.2152 0 0 11.2152 0 25C0 38.7848 11.2152 50 25 50C38.7848 50 50 38.7848 50 25C50 11.2152 38.7848 0 25 0ZM26.0417 47.8639V44.7916C26.0417 44.2158 25.5758 43.7499 25 43.7499C24.4242 43.7499 23.9583 44.2158 23.9583 44.7916V47.8639C12.1548 47.3294 2.67051 37.8452 2.13604 26.0416H5.2083C5.78408 26.0417 6.25 25.5758 6.25 25C6.25 24.4242 5.78408 23.9583 5.2083 23.9583H2.13604C2.67051 12.1548 12.1547 2.67051 23.9583 2.13604V5.2083C23.9583 5.78408 24.4242 6.25 25 6.25C25.5758 6.25 26.0417 5.78408 26.0417 5.2083V2.13604C37.8452 2.67051 47.3295 12.1547 47.864 23.9583H44.7917C44.2159 23.9583 43.75 24.4242 43.75 25C43.75 25.5758 44.2159 26.0417 44.7917 26.0417H47.864C47.3295 37.8452 37.8452 47.3295 26.0417 47.8639Z" fill="#F5F5F5"/>
<path d="M26.9806 25.5076C27.0237 25.3409 27.0833 25.18 27.0833 25C27.0833 24.564 26.9175 24.1814 26.6875 23.8466L33.2357 9.81552C33.4788 9.29472 33.254 8.67412 32.7322 8.43105C32.2123 8.19189 31.5918 8.41474 31.3477 8.93457L24.8042 22.9563C23.7519 23.0602 22.9167 23.921 22.9167 25C22.9167 26.1484 23.8516 27.0833 25 27.0833C25.1799 27.0833 25.341 27.0236 25.5077 26.9806L33.6385 35.1114C33.8419 35.3148 34.1085 35.4166 34.375 35.4166C34.6415 35.4166 34.908 35.3148 35.1116 35.1114C35.5185 34.7045 35.5185 34.0453 35.1116 33.6385L26.9806 25.5076Z" fill="#F5F5F5"/>
</svg>
