<svg width="50" height="50" viewBox="0 0 50 50" fill="none" xmlns="http://www.w3.org/2000/svg">
<g clip-path="url(#clip0)">
<path d="M32.177 22.4297C32.177 28.234 34.6938 32.7813 37.9075 32.7813C41.1211 32.7813 43.6379 28.234 43.6379 22.4297C43.6379 16.6254 41.1211 12.0781 37.9075 12.0781C34.6938 12.0781 32.177 16.6254 32.177 22.4297ZM42.2707 22.4297C42.2707 27.3 40.2727 31.4141 37.9075 31.4141C35.5422 31.4141 33.5442 27.3 33.5442 22.4297C33.5442 17.5594 35.5422 13.4453 37.9075 13.4453C40.2727 13.4453 42.2707 17.5594 42.2707 22.4297Z" fill="#ECDECE"/>
<path d="M49.3125 -0.0156212H26.5039C26.3227 -0.0154144 26.1489 0.0566733 26.0208 0.184827C25.8926 0.312981 25.8205 0.486736 25.8203 0.667973V4.06641C25.8203 4.07813 25.8242 4.08985 25.8242 4.10157C25.8223 4.11189 25.8223 4.12249 25.8242 4.13282L27.8281 24.4141H27.0234V23.7539C27.0227 22.962 26.7474 22.1948 26.2446 21.583C25.7418 20.9712 25.0424 20.5526 24.2656 20.3985C24.1477 17.8167 23.2759 15.326 21.7578 13.2344L20.0664 10.9024C20.0042 10.8163 19.9227 10.746 19.8284 10.6971C19.7341 10.6483 19.6296 10.6222 19.5234 10.6211C19.4168 10.6162 19.3106 10.638 19.2145 10.6843C19.1184 10.7307 19.0352 10.8003 18.9727 10.8867L16.9414 13.5391C16.2907 14.3824 15.4559 15.0659 14.5006 15.5371C13.5453 16.0083 12.4949 16.2548 11.4297 16.2578C10.2756 16.2591 9.16117 16.6791 8.29334 17.4399C7.42551 18.2007 6.86324 19.2505 6.71094 20.3945C5.92819 20.5426 5.22165 20.9592 4.71321 21.5725C4.20476 22.1858 3.92627 22.9573 3.92578 23.7539V24.4141H3.00781C2.82658 24.4143 2.65282 24.4864 2.52467 24.6145C2.39651 24.7427 2.32443 24.9164 2.32422 25.0977V29.5977H0.679689C0.589861 29.5975 0.500876 29.615 0.417846 29.6493C0.334815 29.6836 0.259375 29.7339 0.195856 29.7974C0.132337 29.861 0.0819922 29.9364 0.0477114 30.0194C0.0134306 30.1025 -0.00411049 30.1914 -0.00390446 30.2813V37.9883C0.0018285 42.2501 1.42712 46.3885 4.04688 49.75C4.11032 49.8327 4.19194 49.8997 4.28542 49.9457C4.3789 49.9918 4.48173 50.0157 4.58594 50.0157H26.3633C26.4675 50.0157 26.5703 49.9918 26.6638 49.9457C26.7573 49.8997 26.8389 49.8327 26.9023 49.75C27.9421 48.415 28.7998 46.9477 29.4531 45.3867V47.7383C29.4538 48.3338 29.6907 48.9047 30.1118 49.3257C30.5329 49.7468 31.1037 49.9837 31.6992 49.9844H44.0469C44.6425 49.9843 45.2138 49.7476 45.635 49.3264C46.0562 48.9052 46.2929 48.334 46.293 47.7383V41.086C46.3291 41.0153 46.3516 40.9384 46.3594 40.8594L49.9922 4.13282V4.10157C49.9922 4.08985 49.9961 4.07813 49.9961 4.06641V0.667973C49.9959 0.486736 49.9238 0.312981 49.7956 0.184827C49.6675 0.0566733 49.4937 -0.0154144 49.3125 -0.0156212ZM5.29297 23.7539C5.29463 23.2092 5.51229 22.6873 5.89822 22.3029C6.28415 21.9184 6.80682 21.7027 7.35156 21.7031H13.1445C13.3258 21.7031 13.4997 21.6311 13.6279 21.5029C13.7561 21.3747 13.8281 21.2008 13.8281 21.0195C13.8281 20.8382 13.7561 20.6644 13.6279 20.5362C13.4997 20.408 13.3258 20.336 13.1445 20.336H8.10547C8.26352 19.5708 8.68037 18.8835 9.28584 18.3898C9.89131 17.896 10.6484 17.6259 11.4297 17.625C12.7041 17.6214 13.9609 17.3264 15.1037 16.7624C16.2466 16.1984 17.2453 15.3804 18.0234 14.3711L19.5 12.4492L20.6484 14.0391C21.9859 15.8784 22.7632 18.0651 22.8867 20.336H21.5664C21.3851 20.336 21.2112 20.408 21.083 20.5362C20.9548 20.6644 20.8828 20.8382 20.8828 21.0195C20.8828 21.2008 20.9548 21.3747 21.083 21.5029C21.2112 21.6311 21.3851 21.7031 21.5664 21.7031H23.4648C23.4872 21.7025 23.5094 21.6999 23.5313 21.6953C23.5518 21.6999 23.5727 21.7025 23.5938 21.7031H23.6055C24.149 21.7044 24.6699 21.9208 25.0542 22.3052C25.4386 22.6895 25.655 23.2104 25.6562 23.7539V24.4141H5.29297V23.7539ZM3.69141 28.3711H12.0078C12.1891 28.3711 12.363 28.2991 12.4912 28.1709C12.6194 28.0427 12.6914 27.8688 12.6914 27.6875C12.6914 27.5062 12.6194 27.3323 12.4912 27.2041C12.363 27.0759 12.1891 27.0039 12.0078 27.0039H3.69141V25.7813H27.2578V27.0039H18.9414C18.7601 27.0039 18.5862 27.0759 18.458 27.2041C18.3298 27.3323 18.2578 27.5062 18.2578 27.6875C18.2578 27.8688 18.3298 28.0427 18.458 28.1709C18.5862 28.2991 18.7601 28.3711 18.9414 28.3711H27.2578V29.5977H3.69141V28.3711ZM29.5859 37.9883C29.5859 38.3438 29.5703 38.7071 29.5469 39.0703C29.543 39.1211 29.543 39.1758 29.5391 39.2266C29.5117 39.5821 29.4766 39.9375 29.4297 40.293C29.0298 43.3242 27.8568 46.2016 26.0234 48.6485H4.92188C2.61783 45.5715 1.36963 41.8323 1.36328 37.9883V30.9649H29.5859V37.9883ZM44.9258 47.7383C44.9255 47.9713 44.8328 48.1947 44.668 48.3594C44.5033 48.5242 44.2799 48.6169 44.0469 48.6172H31.6992C31.4662 48.6169 31.2428 48.5242 31.0781 48.3594C30.9133 48.1947 30.8206 47.9713 30.8203 47.7383V44.1602H44.9258V47.7383ZM44.9258 42.793H30.8203V41.4766H44.9258V42.793ZM45.0586 40.1094H30.832C30.8359 40.0625 30.8398 40.0196 30.8438 39.9727C30.8711 39.711 30.8945 39.4492 30.9102 39.1875C30.9141 39.1094 30.9219 39.0313 30.9258 38.9532C30.9414 38.6328 30.9531 38.3086 30.9531 37.9883V30.2813C30.9533 30.1914 30.9358 30.1025 30.9015 30.0194C30.8672 29.9364 30.8169 29.861 30.7534 29.7974C30.6898 29.7339 30.6144 29.6836 30.5314 29.6493C30.4483 29.615 30.3594 29.5975 30.2695 29.5977H29.7148L27.2578 4.75001H48.5586L45.0586 40.1094ZM48.6289 3.38282H27.1875V1.35157H48.6289V3.38282Z" fill="#ECDECE"/>
<path d="M21.5625 37.2766C21.5625 37.0953 21.4905 36.9214 21.3623 36.7932C21.2341 36.665 21.0602 36.593 20.8789 36.593C19.8794 36.5903 18.895 36.8361 18.014 37.3082C17.61 36.2048 16.8325 35.2776 15.8164 34.6875C15.7123 34.6271 15.5941 34.5953 15.4738 34.5953C15.3535 34.5953 15.2353 34.6271 15.1312 34.6875C14.1154 35.2778 13.3383 36.2052 12.9347 37.3086C12.0538 36.8365 11.0694 36.5907 10.0699 36.5934C9.88859 36.5934 9.71471 36.6654 9.58652 36.7936C9.45832 36.9218 9.3863 37.0957 9.3863 37.277V37.3684C9.38614 38.739 9.85122 40.0691 10.7054 41.141C10.2 41.4674 9.77933 41.9092 9.47809 42.4301C9.41792 42.5342 9.38623 42.6522 9.38623 42.7725C9.38623 42.8927 9.41792 43.0108 9.47809 43.1148C9.77036 43.6217 10.1758 44.0542 10.6627 44.3787C11.1496 44.7031 11.7049 44.9107 12.2852 44.9852C12.8655 45.0597 13.4552 44.9992 14.0083 44.8083C14.5614 44.6174 15.063 44.3014 15.4738 43.8848C15.8846 44.3013 16.3862 44.6174 16.9392 44.8082C17.4923 44.9991 18.082 45.0596 18.6623 44.985C19.2426 44.9104 19.7979 44.7028 20.2847 44.3784C20.7716 44.0539 21.1769 43.6214 21.4691 43.1145C21.5293 43.0105 21.561 42.8924 21.561 42.7723C21.561 42.6521 21.5293 42.5341 21.4691 42.4301C21.168 41.9093 20.7475 41.4675 20.2422 41.141C21.0967 40.0691 21.5622 38.7389 21.5625 37.368V37.2766ZM18.3129 38.7191C18.8685 38.3564 19.4953 38.1166 20.1511 38.016C20.0436 38.7622 19.7605 39.4721 19.3252 40.0876C18.89 40.7031 18.3149 41.2066 17.6472 41.5566C17.7211 41.5176 17.7824 41.2832 17.8152 41.2125C17.9171 40.9959 18.0058 40.7734 18.0808 40.5461C18.2698 39.9566 18.348 39.3371 18.3113 38.7191H18.3129ZM15.4738 36.0938C15.9316 36.4324 16.3035 36.8736 16.5599 37.382C16.8162 37.8905 16.9497 38.4519 16.9497 39.0213C16.9497 39.5907 16.8162 40.1521 16.5599 40.6606C16.3035 41.169 15.9316 41.6102 15.4738 41.9488C15.016 41.6103 14.6439 41.1691 14.3875 40.6606C14.1312 40.1522 13.9976 39.5907 13.9976 39.0213C13.9976 38.4519 14.1312 37.8904 14.3875 37.382C14.6439 36.8735 15.016 36.4323 15.4738 36.0938ZM12.6367 38.7191C12.5989 39.3327 12.6753 39.9479 12.8621 40.5336C12.9398 40.7779 13.0367 41.0156 13.1519 41.2445C13.2059 41.3447 13.2544 41.4477 13.2972 41.5531C12.6307 41.2029 12.0566 40.6996 11.622 40.0847C11.1874 39.4697 10.9048 38.7605 10.7972 38.0152C11.4536 38.116 12.0807 38.356 12.6367 38.7191ZM12.7722 43.648C12.4153 43.6472 12.0629 43.5683 11.7398 43.4168C11.4166 43.2653 11.1305 43.0449 10.9015 42.7711C11.1209 42.5089 11.3931 42.296 11.7004 42.1461C12.3921 42.6897 13.1922 43.0791 14.0468 43.2879C13.6637 43.5232 13.223 43.6478 12.7734 43.648H12.7722ZM18.1758 43.648C17.7256 43.6476 17.2843 43.5223 16.9011 43.2859C17.7558 43.0772 18.5559 42.6878 19.2476 42.1441C19.5549 42.2939 19.8271 42.5069 20.0465 42.7691C19.8177 43.0434 19.5316 43.2642 19.2084 43.4161C18.8851 43.5679 18.5325 43.6471 18.1754 43.648H18.1758Z" fill="#ECDECE"/>
<path d="M19.0429 20.3359H17.671C17.4897 20.3359 17.3158 20.408 17.1876 20.5362C17.0594 20.6644 16.9874 20.8382 16.9874 21.0195C16.9874 21.2008 17.0594 21.3747 17.1876 21.5029C17.3158 21.6311 17.4897 21.7031 17.671 21.7031H19.0429C19.2242 21.7031 19.3981 21.6311 19.5263 21.5029C19.6545 21.3747 19.7265 21.2008 19.7265 21.0195C19.7265 20.8382 19.6545 20.6644 19.5263 20.5362C19.3981 20.408 19.2242 20.3359 19.0429 20.3359Z" fill="#ECDECE"/>
</g>
<defs>
<clipPath id="clip0">
<rect width="50" height="50" fill="white"/>
</clipPath>
</defs>
</svg>
