<svg width="50" height="50" viewBox="0 0 50 50" fill="none" xmlns="http://www.w3.org/2000/svg">
<path d="M25 50C38.8071 50 50 38.8071 50 25C50 11.1929 38.8071 0 25 0C11.1929 0 0 11.1929 0 25C0.0151116 38.8009 11.1991 49.9849 25 50ZM25 46.7742C13.9181 46.7581 4.61144 38.4312 3.36774 27.4194H9.69839C10.1247 35.5592 16.849 41.9406 25 41.9406C33.151 41.9406 39.8753 35.5592 40.3016 27.4194H46.6323C45.3893 38.4316 36.0821 46.7589 25 46.7742ZM25 3.22581C36.6999 3.24445 46.2955 12.5019 46.7339 24.1935H38.6936C38.2491 24.1928 37.824 24.3755 37.5187 24.6985C37.2133 25.0216 37.0549 25.4563 37.0806 25.9C37.2998 30.3654 35.0383 34.5875 31.1997 36.8794C27.3611 39.1713 22.5714 39.1591 18.7445 36.8478C14.9176 34.5365 12.6775 30.3029 12.9194 25.8387C12.928 25.4054 12.7619 24.9868 12.4585 24.6773C12.1551 24.3678 11.7399 24.1935 11.3064 24.1935H3.26613C3.70445 12.5019 13.3001 3.24445 25 3.22581V3.22581Z" fill="black"/>
<path d="M25 35.4839C29.8971 35.4786 33.8656 31.51 33.871 26.613C33.871 21.7081 29.0855 22.571 32.2097 10.0694C32.6935 8.12425 31.1629 6.60167 28.8984 7.67586C25.2161 9.4178 16.129 18.8581 16.129 26.613C16.1344 31.51 20.1029 35.4786 25 35.4839ZM28.5226 11.7742C26.4 22.6549 30.6452 23.7791 30.6452 26.613C30.6452 29.7307 28.1177 32.2581 25 32.2581C21.8823 32.2581 19.3548 29.7307 19.3548 26.613C19.3548 21.3388 25.1823 14.5662 28.5226 11.7742Z" fill="black"/>
</svg>
