<?xml version="1.0" encoding="UTF-8"?>
<!DOCTYPE svg PUBLIC "-//W3C//DTD SVG 1.1//EN" "http://www.w3.org/Graphics/SVG/1.1/DTD/svg11.dtd">
<!-- Creator: CorelDRAW X7 -->
<svg xmlns="http://www.w3.org/2000/svg" xml:space="preserve" width="80px" height="80px" version="1.1" style="shape-rendering:geometricPrecision; text-rendering:geometricPrecision; image-rendering:optimizeQuality; fill-rule:evenodd; clip-rule:evenodd"
viewBox="0 0 500 500"
 xmlns:xlink="http://www.w3.org/1999/xlink">
 
 <g id="Слой_x0020_1">
  <metadata id="CorelCorpID_0Corel-Layer"/>
  <path fill="rgb(43, 23, 17)" stroke="rgb(43, 23, 17)" stroke-width="2" d="M260 353c1,0 2,2 2,3 0,1 1,2 1,4 1,2 2,5 2,7 7,18 14,23 22,39 6,11 3,17 8,30 2,4 3,7 5,10 5,6 11,-7 12,-10 12,-30 -11,-49 -7,-64 2,-4 3,-8 4,-14 2,-6 0,-12 -4,-15 -4,-3 -12,-1 -16,-3 -4,-2 -6,-9 -7,-13 -2,-5 -3,-10 -5,-15 -1,-4 -1,-5 0,-8 4,-13 6,-29 7,-43 0,-13 -1,-25 -4,-37 -2,-10 -6,-22 -7,-32 -1,-13 2,-23 5,-35 3,-16 7,-33 9,-50 2,-11 7,-42 7,-53 0,1 0,0 0,1 -1,2 -4,3 -4,15 -1,5 -3,7 -4,12 0,5 -1,12 -2,17 -1,5 -4,12 -3,18 -1,10 -1,20 -4,30 -8,28 -13,35 -3,62 6,21 9,42 6,64l-5 31c-1,-6 -13,-48 -15,-54 -5,-13 -9,-25 -17,-36 -2,-3 -4,-5 -6,-7 -4,-4 -12,-13 -16,-16 -1,-2 -3,-2 -4,-5 -4,-14 -3,-51 0,-66 1,-7 5,-21 8,-27 1,3 1,9 2,13 1,14 4,27 5,40 1,10 2,19 3,28 0,5 0,10 1,14 0,5 0,10 0,15 0,-1 1,-7 1,-9 0,-3 0,-6 0,-10 -1,-40 -8,-71 -11,-110 0,-4 -2,-15 -2,-18 -1,9 1,22 1,32 0,2 -4,9 -5,12 -12,22 -12,50 -9,75 2,15 4,14 12,21l5 4c1,2 3,3 4,4 1,1 1,1 2,2l6 8c10,14 14,29 20,46 4,15 17,65 23,76 1,3 1,4 3,5 5,4 14,3 18,7 6,6 -3,18 -4,25 -2,13 16,32 12,53 -1,4 -2,9 -4,12 -2,5 -5,9 -8,3 -4,-8 -3,-17 -5,-26 -4,-17 -16,-28 -22,-43 -2,-5 -5,-11 -6,-17 -1,-3 -5,-5 -6,-8 -6,-16 -14,-31 -22,-44 -14,-20 -37,-63 -48,-85 -4,-8 -7,-13 -11,-21 -3,-4 -4,-6 -7,-11 -6,-13 -6,-27 -8,-41 -2,-10 -3,-19 -5,-29 -3,-15 -5,-45 -6,-61l0 10c0,23 2,46 6,69 2,12 4,25 6,37 1,7 2,11 5,16 3,5 5,9 8,14 5,8 9,18 14,28 6,12 12,24 18,36 2,2 3,4 4,6 6,9 11,19 16,27 2,2 6,8 7,10 0,2 0,4 0,5 0,14 -1,27 -3,40 -2,12 -7,22 -10,33 -2,6 -2,12 -4,18 -1,5 -2,11 -4,17 -2,5 -4,11 -6,15 -3,5 -7,8 -9,13 -4,6 9,5 13,6 7,0 14,0 20,-2 11,-3 12,-24 16,-33 2,-5 6,-8 5,-12 3,-2 -1,-5 -1,-9 1,-9 2,-26 5,-37 0,-3 0,-7 0,-9z"/>
  <path fill="white" d="M263 350c-1,-6 -13,-28 -16,-34l-4 -7c-1,-1 -2,-3 -3,-4 2,5 5,9 3,11 0,3 -2,-1 -2,11 0,12 0,27 -3,39 -6,18 -8,14 -12,34 -2,9 -4,27 -9,35 -1,3 -3,5 -5,7 -2,3 -5,4 -5,6 7,3 29,2 34,-3 5,-6 3,-20 9,-31 8,-15 4,-10 4,-23 -1,-9 1,-19 3,-27 0,-3 2,-11 4,-13l2 -1z"/>
  <path fill="#a1896b" d="M233 387l11 -31 0 -33 12 23 -7 55c-7,2 -13,3 -19,1l3 -15z"/>
  <path  fill="#a1896b" d="M186 200l28 -5c11,7 17,11 25,23 16,37 27,73 36,107l-11 17 -67 -121 -11 -21z"/>
  <path fill="#a1896b" d="M251 197l13 -2c14,27 16,52 13,77l-2 20 -6 -18 -8 -33c-3,-14 -12,-27 -22,-38l12 -6z"/>
 </g>
</svg>
