<svg width="50" height="50" viewBox="0 0 50 50" fill="none" xmlns="http://www.w3.org/2000/svg">
<path d="M25 38.6568C20.2625 38.6511 16.3074 35.0407 15.8708 30.3235H0V28.6568H17.5V29.4902C17.5 33.632 20.8577 36.9902 25 36.9902C29.1423 36.9902 32.5 33.632 32.5 29.4902V28.6568H50V30.3235H34.1292C33.6926 35.0407 29.7375 38.6511 25 38.6568Z" fill="#ECDECE"/>
<path d="M28.2357 23.8757C27.3609 19.5048 27.8325 13.276 28.3765 8.85416C25.8383 14.1675 22.0435 22.57 21.1068 27.17C20.9274 27.8939 20.8358 28.6369 20.8334 29.3823V29.4902C20.8334 31.7912 22.699 33.6568 25 33.6568C27.3011 33.6568 29.1667 31.7912 29.1667 29.4902C28.9852 27.5997 28.674 25.7239 28.2357 23.8757Z" fill="#ECDECE"/>
<path d="M13.3333 34.4902C13.3333 34.9504 12.9602 35.3235 12.5 35.3235C12.0398 35.3235 11.6666 34.9504 11.6666 34.4902C11.6666 34.0299 12.0398 33.6568 12.5 33.6568C12.9602 33.6568 13.3333 34.0299 13.3333 34.4902Z" fill="#ECDECE"/>
<path d="M6.66671 36.9902C6.66671 37.9106 5.92045 38.6568 5.00004 38.6568C4.07963 38.6568 3.33337 37.9106 3.33337 36.9902C3.33337 36.0693 4.07963 35.3235 5.00004 35.3235C5.92045 35.3235 6.66671 36.0693 6.66671 36.9902Z" fill="#ECDECE"/>
<path d="M46.6667 36.9902C46.6667 37.9106 45.9205 38.6568 45 38.6568C44.0796 38.6568 43.3334 37.9106 43.3334 36.9902C43.3334 36.0693 44.0796 35.3235 45 35.3235C45.9205 35.3235 46.6667 36.0693 46.6667 36.9902Z" fill="#ECDECE"/>
<path d="M38.3333 34.4902C38.3333 34.9504 37.9602 35.3235 37.5 35.3235C37.0398 35.3235 36.6666 34.9504 36.6666 34.4902C36.6666 34.0299 37.0398 33.6568 37.5 33.6568C37.9602 33.6568 38.3333 34.0299 38.3333 34.4902Z" fill="#ECDECE"/>
<path d="M18.3333 40.3235C18.3333 40.7837 17.9602 41.1568 17.5 41.1568C17.0398 41.1568 16.6666 40.7837 16.6666 40.3235C16.6666 39.8633 17.0398 39.4902 17.5 39.4902C17.9602 39.4902 18.3333 39.8633 18.3333 40.3235Z" fill="#ECDECE"/>
<path d="M33.3333 40.3235C33.3333 40.7837 32.9602 41.1568 32.5 41.1568C32.0398 41.1568 31.6666 40.7837 31.6666 40.3235C31.6666 39.8633 32.0398 39.4902 32.5 39.4902C32.9602 39.4902 33.3333 39.8633 33.3333 40.3235Z" fill="#ECDECE"/>
</svg>
