<svg width="35" height="35" viewBox="0 0 35 35" fill="none" xmlns="http://www.w3.org/2000/svg">
<circle cx="17.3258" cy="17.3258" r="17.3258" fill="#37231D"/>
<g clip-path="url(#clip0)">
<path d="M17.7483 7.89409C20.6839 7.89409 21.0314 7.90714 22.1857 7.95864C23.259 8.00602 23.8379 8.18593 24.2245 8.33632C24.7354 8.53409 25.1042 8.77443 25.486 9.15623C25.8726 9.54284 26.1081 9.90748 26.31 10.4184C26.4604 10.805 26.6403 11.388 26.6877 12.4572C26.7392 13.6163 26.7523 13.9638 26.7523 16.8953C26.7523 19.8268 26.7392 20.1784 26.6877 21.3334C26.6403 22.4067 26.4604 22.9856 26.31 23.3722C26.1123 23.8831 25.8726 24.2518 25.4901 24.6336C25.1035 25.0202 24.7389 25.2558 24.2287 25.4577C23.842 25.608 23.2584 25.788 22.1899 25.8353C21.0307 25.8868 20.6833 25.8999 17.7518 25.8999C14.8203 25.8999 14.4687 25.8868 13.3137 25.8353C12.2404 25.788 11.6615 25.608 11.2749 25.4577C10.764 25.2599 10.3952 25.0202 10.0127 24.6377C9.62612 24.2511 9.39058 23.8865 9.18869 23.3763C9.03831 22.9897 8.85839 22.406 8.81101 21.3375C8.75951 20.1784 8.74646 19.8309 8.74646 16.8994C8.74646 13.9679 8.75951 13.6163 8.81101 12.4613C8.85839 11.388 9.03831 10.8091 9.18869 10.4225C9.38646 9.9116 9.6268 9.54284 10.0086 9.16035C10.3952 8.77374 10.7598 8.53821 11.2707 8.33632C11.6574 8.18593 12.2404 8.00602 13.3095 7.95864C14.4639 7.90714 14.812 7.89409 17.7476 7.89409H17.7483ZM17.7483 5.91573C14.7653 5.91573 14.3925 5.92877 13.2203 5.98027C12.0529 6.03178 11.2501 6.22062 10.5552 6.49117C9.83006 6.77409 9.21616 7.14765 8.60706 7.76156C7.99316 8.37134 7.6196 8.98456 7.33668 9.70559C7.06612 10.4053 6.87728 11.2033 6.82578 12.3706C6.77428 13.547 6.76123 13.9198 6.76123 16.9028C6.76123 19.8858 6.77428 20.2587 6.82578 21.4309C6.87728 22.5983 7.06612 23.401 7.33668 24.0959C7.62028 24.8211 7.99316 25.435 8.60706 26.0441C9.21616 26.6532 9.83006 27.0316 10.5511 27.3104C11.2508 27.5809 12.0488 27.7697 13.2161 27.8213C14.3876 27.8728 14.7612 27.8858 17.7442 27.8858C20.7272 27.8858 21.1008 27.8728 22.2723 27.8213C23.4396 27.7697 24.2424 27.5809 24.9373 27.3104C25.6583 27.0316 26.2723 26.6539 26.8813 26.0441C27.4904 25.4343 27.8688 24.8211 28.1476 24.1001C28.4182 23.4003 28.607 22.6024 28.6585 21.435C28.71 20.2635 28.7231 19.8899 28.7231 16.9069C28.7231 13.9239 28.71 13.5511 28.6585 12.3789C28.607 11.2115 28.4182 10.4088 28.1476 9.71383C27.8771 8.98387 27.5035 8.37066 26.8903 7.76087C26.2812 7.15177 25.6673 6.77341 24.9462 6.49461C24.2465 6.22405 23.4486 6.03521 22.2812 5.98371C21.1056 5.92809 20.732 5.91504 17.749 5.91504L17.7483 5.91573Z" fill="#A78E74"/>
<path d="M17.7483 7.89409C20.6839 7.89409 21.0314 7.90714 22.1857 7.95864C23.259 8.00602 23.8379 8.18593 24.2245 8.33632C24.7354 8.53409 25.1042 8.77443 25.486 9.15623C25.8726 9.54284 26.1081 9.90748 26.31 10.4184C26.4604 10.805 26.6403 11.388 26.6877 12.4572C26.7392 13.6163 26.7523 13.9638 26.7523 16.8953C26.7523 19.8268 26.7392 20.1784 26.6877 21.3334C26.6403 22.4067 26.4604 22.9856 26.31 23.3722C26.1123 23.8831 25.8726 24.2518 25.4901 24.6336C25.1035 25.0202 24.7389 25.2558 24.2287 25.4577C23.842 25.608 23.2584 25.788 22.1899 25.8353C21.0307 25.8868 20.6833 25.8999 17.7518 25.8999C14.8203 25.8999 14.4687 25.8868 13.3137 25.8353C12.2404 25.788 11.6615 25.608 11.2749 25.4577C10.764 25.2599 10.3952 25.0202 10.0127 24.6377C9.62612 24.2511 9.39058 23.8865 9.18869 23.3763C9.03831 22.9897 8.85839 22.406 8.81101 21.3375C8.75951 20.1784 8.74646 19.8309 8.74646 16.8994C8.74646 13.9679 8.75951 13.6163 8.81101 12.4613C8.85839 11.388 9.03831 10.8091 9.18869 10.4225C9.38646 9.9116 9.6268 9.54284 10.0086 9.16035C10.3952 8.77374 10.7598 8.53821 11.2707 8.33632C11.6574 8.18593 12.2404 8.00602 13.3095 7.95864C14.4639 7.90714 14.812 7.89409 17.7476 7.89409H17.7483ZM17.7483 5.91573C14.7653 5.91573 14.3925 5.92877 13.2203 5.98027C12.0529 6.03178 11.2501 6.22062 10.5552 6.49117C9.83006 6.77409 9.21616 7.14765 8.60706 7.76156C7.99316 8.37134 7.6196 8.98456 7.33668 9.70559C7.06612 10.4053 6.87728 11.2033 6.82578 12.3706C6.77428 13.547 6.76123 13.9198 6.76123 16.9028C6.76123 19.8858 6.77428 20.2587 6.82578 21.4309C6.87728 22.5983 7.06612 23.401 7.33668 24.0959C7.62028 24.8211 7.99316 25.435 8.60706 26.0441C9.21616 26.6532 9.83006 27.0316 10.5511 27.3104C11.2508 27.5809 12.0488 27.7697 13.2161 27.8213C14.3876 27.8728 14.7612 27.8858 17.7442 27.8858C20.7272 27.8858 21.1008 27.8728 22.2723 27.8213C23.4396 27.7697 24.2424 27.5809 24.9373 27.3104C25.6583 27.0316 26.2723 26.6539 26.8813 26.0441C27.4904 25.4343 27.8688 24.8211 28.1476 24.1001C28.4182 23.4003 28.607 22.6024 28.6585 21.435C28.71 20.2635 28.7231 19.8899 28.7231 16.9069C28.7231 13.9239 28.71 13.5511 28.6585 12.3789C28.607 11.2115 28.4182 10.4088 28.1476 9.71383C27.8771 8.98387 27.5035 8.37066 26.8903 7.76087C26.2812 7.15177 25.6673 6.77341 24.9462 6.49461C24.2465 6.22405 23.4486 6.03521 22.2812 5.98371C21.1056 5.92809 20.732 5.91504 17.749 5.91504L17.7483 5.91573Z" stroke="black"/>
<path d="M17.7483 11.2593C14.6328 11.2593 12.1044 13.787 12.1044 16.9032C12.1044 20.0194 14.6321 22.5471 17.7483 22.5471C20.8645 22.5471 23.3922 20.0194 23.3922 16.9032C23.3922 13.7877 20.8645 11.2593 17.7483 11.2593ZM17.7483 20.564C15.7267 20.564 14.0875 18.9248 14.0875 16.9032C14.0875 14.8816 15.7267 13.2424 17.7483 13.2424C19.7699 13.2424 21.4091 14.8816 21.4091 16.9032C21.4091 18.9248 19.7699 20.564 17.7483 20.564Z" fill="#A78E74"/>
<path d="M24.9325 11.036C24.9325 11.7639 24.3427 12.3538 23.6148 12.3538C22.8869 12.3538 22.297 11.7639 22.297 11.036C22.297 10.3081 22.8869 9.71826 23.6148 9.71826C24.3427 9.71826 24.9325 10.3081 24.9325 11.036Z" fill="#A78E74"/>
</g>
<defs>
<clipPath id="clip0">
<rect x="6.76123" y="5.91602" width="21.9742" height="21.9742" fill="white"/>
</clipPath>
</defs>
</svg>
