<svg width="70" height="70" viewBox="0 0 40 40" fill="none" xmlns="http://www.w3.org/2000/svg">
<g clip-path="url(#clip0)">
<path d="M36.455 13.09C34.8925 12.68 31.2188 12.685 25.845 12.5425C26.0988 11.37 26.1575 10.3125 26.1575 8.435C26.1575 3.95 22.89 0 20 0C17.9587 0 16.2762 1.66875 16.25 3.72125C16.2225 6.23875 15.4438 10.5862 11.25 12.7912C10.9425 12.9537 10.0625 13.3875 9.93375 13.4438L10 13.5C9.34375 12.9338 8.43375 12.5 7.5 12.5H3.75C1.6825 12.5 0 14.1825 0 16.25V36.25C0 38.3175 1.6825 40 3.75 40H7.5C8.9875 40 10.2325 39.1013 10.835 37.8413C10.85 37.8463 10.8763 37.8537 10.8938 37.8562C10.9763 37.8787 11.0738 37.9025 11.1925 37.9338C11.215 37.94 11.2263 37.9425 11.25 37.9487C11.97 38.1275 13.3563 38.4588 16.3188 39.14C16.9538 39.285 20.3088 40 23.7838 40H30.6175C32.7 40 34.2013 39.1988 35.095 37.59C35.1075 37.565 35.395 37.0038 35.63 36.245C35.8062 35.6738 35.8713 34.865 35.6588 34.045C37.0013 33.1225 37.4338 31.7275 37.715 30.82C38.1863 29.3313 38.045 28.2125 37.7175 27.4113C38.4725 26.6988 39.1163 25.6125 39.3875 23.9538C39.5563 22.9263 39.375 21.8688 38.9013 20.9888C39.6088 20.1938 39.9313 19.1937 39.9688 18.2687L39.9837 18.0075C39.9925 17.8438 40 17.7425 40 17.3825C40 15.8038 38.9062 13.79 36.455 13.09V13.09ZM8.75 36.25C8.75 36.9412 8.19125 37.5 7.5 37.5H3.75C3.05875 37.5 2.5 36.9412 2.5 36.25V16.25C2.5 15.5588 3.05875 15 3.75 15H7.5C8.19125 15 8.75 15.5588 8.75 16.25V36.25ZM37.4712 18.1687C37.4462 18.7862 37.1875 20 35 20C33.125 20 32.5 20 32.5 20C32.1537 20 31.875 20.28 31.875 20.625C31.875 20.97 32.1537 21.25 32.5 21.25C32.5 21.25 33.0475 21.25 34.9225 21.25C36.7975 21.25 37.0438 22.805 36.9225 23.555C36.7675 24.4875 36.33 26.25 34.2188 26.25C32.11 26.25 31.25 26.25 31.25 26.25C30.9037 26.25 30.625 26.5287 30.625 26.875C30.625 27.2188 30.9037 27.5 31.25 27.5C31.25 27.5 32.735 27.5 33.7112 27.5C35.8212 27.5 35.635 29.1088 35.3325 30.0688C34.9338 31.33 34.69 32.5 32.0312 32.5C31.1325 32.5 29.9925 32.5 29.9925 32.5C29.6462 32.5 29.3675 32.7787 29.3675 33.125C29.3675 33.4688 29.6462 33.75 29.9925 33.75C29.9925 33.75 30.8588 33.75 31.9525 33.75C33.32 33.75 33.3838 35.0438 33.2413 35.5075C33.085 36.015 32.9 36.3913 32.8925 36.4088C32.515 37.09 31.9062 37.5 30.6175 37.5H23.7838C20.3513 37.5 16.9463 36.7213 16.8588 36.7013C11.6663 35.505 11.3925 35.4125 11.0662 35.32C11.0662 35.32 10.0087 35.1412 10.0087 34.2188L10 16.9537C10 16.3675 10.3737 15.8375 10.9925 15.6512C11.07 15.6212 11.175 15.5888 11.25 15.5575C16.96 13.1925 18.6987 8.0075 18.75 3.75C18.7575 3.15125 19.2188 2.5 20 2.5C21.3213 2.5 23.6575 5.1525 23.6575 8.435C23.6575 11.3988 23.5375 11.9113 22.5 15C35 15 34.9125 15.18 36.015 15.4688C37.3825 15.86 37.5 16.9925 37.5 17.3825C37.5 17.8113 37.4875 17.7487 37.4712 18.1687V18.1687ZM5.625 32.5C4.59 32.5 3.75 33.34 3.75 34.375C3.75 35.41 4.59 36.25 5.625 36.25C6.66 36.25 7.5 35.41 7.5 34.375C7.5 33.34 6.66 32.5 5.625 32.5ZM5.625 35C5.28125 35 5 34.7188 5 34.375C5 34.0312 5.28125 33.75 5.625 33.75C5.96875 33.75 6.25 34.0312 6.25 34.375C6.25 34.7188 5.96875 35 5.625 35Z"
 fill="#000000"/>
</g>
<defs>
<clipPath id="clip0">
<rect width="40" height="40" fill="white"/>
</clipPath>
</defs>
</svg>
