<svg width="48" height="48" viewBox="0 0 48 48" fill="none" xmlns="http://www.w3.org/2000/svg">
<path d="M21.9225 44.0522C21.9225 45.0389 22.0828 45.834 22.4036 46.4377C22.7243 47.0402 23.4615 47.3415 24.6149 47.3415H25.3847V48H21.9225C21.2553 48 20.6978 47.9506 20.25 47.8518C19.801 47.7531 19.4417 47.5555 19.1723 47.2592C18.9029 46.9639 18.7168 46.5639 18.6142 46.059C18.5115 45.5542 18.4602 44.8853 18.4602 44.0522V37.4721H6.92258V48H3.46033V30.2335C3.46033 29.2468 3.30059 28.4516 2.98112 27.848C2.66036 27.2455 1.92262 26.9442 0.767892 26.9442H0V26.2857H3.46033C4.1275 26.2857 4.68562 26.3351 5.13468 26.4339C5.58245 26.5326 5.94106 26.7302 6.2105 27.0265C6.47993 27.3229 6.66597 27.7284 6.76861 28.2431C6.87126 28.759 6.92258 29.4224 6.92258 30.2335V36.1567H18.4602V26.2857H21.9225V44.0522ZM44.1528 41.7491C44.1528 40.0161 43.5312 38.7331 42.288 37.9001C41.0447 37.066 39.3588 36.649 37.2303 36.649C36.6401 36.649 36.0313 36.6874 35.4039 36.7642C34.7752 36.841 34.1658 36.9563 33.5756 37.1099V46.3883C34.1658 46.5419 34.7752 46.6572 35.4039 46.734C36.0313 46.8108 36.6401 46.8492 37.2303 46.8492C39.3588 46.8492 41.0447 46.4322 42.288 45.5981C43.5312 44.7651 44.1528 43.4821 44.1528 41.7491ZM42.8461 26.2857C43.512 26.2857 44.0566 26.3625 44.48 26.5162C44.9034 26.6698 45.237 26.8674 45.4808 27.1088C45.7233 27.3503 45.8894 27.6296 45.9792 27.9468C46.069 28.2651 46.1139 28.5888 46.1139 28.9181V31.3858H45.3461C45.3461 30.0699 44.9291 29.1102 44.0951 28.5065C43.2624 27.904 42.0769 27.6027 40.5386 27.6027H33.5756V35.4982H37.8076C38.9097 35.4982 40.0632 35.5751 41.268 35.7287C42.474 35.8824 43.5768 36.1891 44.5762 36.649C45.5757 37.1099 46.3962 37.7459 47.0377 38.557C47.6792 39.3692 48 40.4332 48 41.7491C48 43.065 47.6792 44.1285 47.0377 44.9396C46.3962 45.7517 45.5757 46.3883 44.5762 46.8492C43.5768 47.3091 42.474 47.6159 41.268 47.7695C40.0632 47.9232 38.9097 48 37.8076 48H30.1152V30.2335C30.1152 29.2468 29.9549 28.4516 29.6341 27.848C29.3133 27.2455 28.5762 26.9442 27.4228 26.9442H26.653V26.2857H42.8461Z" fill="#37231D"/>
<path d="M19.3207 14.6319C18.2891 13.8413 17.9958 13.1619 17.528 13.3509C16.7502 13.6643 18.5753 15.3267 18.9242 15.5177C19.2731 15.7087 19.6542 16.3082 19.6542 16.3082C19.3207 16.2128 19.0194 16.2123 17.1156 15.8313C15.2115 15.4491 13.8154 13.9505 13.8789 13.4325C13.9425 12.9147 13.768 12.4243 13.2761 12.5467C12.7844 12.6696 12.8949 14.6042 14.0539 15.9537C15.2121 17.3032 16.3856 17.951 17.92 18.1792C19.203 18.3702 19.9398 18.8978 20.2092 19.1292C20.403 19.2947 20.0273 20.9174 19.7978 21.8282C20.7941 22.1273 21.8467 22.3225 22.939 22.3998V19.4465C22.939 19.4465 24.0972 18.7203 23.1132 17.2756C22.1289 15.8311 20.3525 15.4222 19.3207 14.6319Z" fill="#37231D"/>
<path d="M34.7243 12.5465C34.2317 12.4241 34.0576 12.9145 34.1211 13.4323C34.1847 13.9503 32.7886 15.4489 30.8848 15.8311C28.9804 16.2123 28.6794 16.2128 28.3459 16.3081C28.3459 16.3081 28.7267 15.7082 29.0761 15.5175C29.425 15.3268 31.2502 13.6644 30.4726 13.3508C30.0045 13.162 29.7109 13.8412 28.6797 14.6317C27.6484 15.4223 25.8714 15.8309 24.8877 17.2754C23.904 18.7201 25.0622 19.4463 25.0622 19.4463V22.3997C26.1536 22.3223 27.2063 22.1272 28.2025 21.828C27.9736 20.917 27.5979 19.2942 27.7912 19.129C28.0608 18.8976 28.7977 18.37 30.0804 18.179C31.615 17.9509 32.7886 17.303 33.9464 15.9535C35.1045 14.604 35.216 12.6694 34.7243 12.5465Z" fill="#37231D"/>
<path d="M25.2719 4.06833C24.8286 5.53877 25.3836 8.89024 25.3836 8.89024C31.1643 4.35747 24.962 0 24.962 0C20.342 5.34854 24.5091 8.97887 24.5091 8.97887C23.9381 7.32529 25.2719 4.06833 25.2719 4.06833Z" fill="#37231D"/>
<path d="M22.9787 9.37533C21.2528 8.97209 19.0063 6.57791 19.0063 6.57791C20.0949 7.55526 23.3105 8.76521 23.3105 8.76521C22.0232 2.88074 15.2745 4.87267 15.2745 4.87267C17.8243 10.384 22.9787 9.37533 22.9787 9.37533Z" fill="#37231D"/>
<path d="M16.0425 11.6228C20.1283 13.1784 21.9788 10.7064 21.9788 10.7064C20.9683 11.1912 18.6669 10.9588 18.6669 10.9588C19.6856 10.987 21.8101 10.2948 21.8101 10.2948C18.111 8.07572 16.0425 11.6228 16.0425 11.6228Z" fill="#37231D"/>
<path d="M32.1173 11.943C30.0938 9.88058 28.0392 10.9532 28.0392 10.9532C28.8516 10.9138 30.2218 11.6691 30.2218 11.6691C29.5881 11.3816 27.9982 11.2573 27.9982 11.2573C29.5397 13.6368 32.1173 11.943 32.1173 11.943Z" fill="#37231D"/>
<path d="M25.942 9.57405C27.0437 8.39495 30.4474 7.5924 30.4474 7.5924C28.9908 8.05341 26.4537 10.0708 26.4537 10.0708C33.1491 11.3877 33.708 5.36788 33.708 5.36788C26.908 5.17765 25.942 9.57405 25.942 9.57405Z" fill="#37231D"/>
</svg>
