<?xml version="1.0" encoding="UTF-8"?>
<!DOCTYPE svg PUBLIC "-//W3C//DTD SVG 1.1//EN" "http://www.w3.org/Graphics/SVG/1.1/DTD/svg11.dtd">
<!-- Creator: CorelDRAW X7 -->
<svg xmlns="http://www.w3.org/2000/svg" xml:space="preserve" width="80px" height="80px" version="1.1" style="shape-rendering:geometricPrecision; text-rendering:geometricPrecision; image-rendering:optimizeQuality; fill-rule:evenodd; clip-rule:evenodd"
viewBox="0 0 500 500"
 xmlns:xlink="http://www.w3.org/1999/xlink">
 <defs>
  <style type="text/css">
   <![CDATA[
    .str0 {stroke:#F5B2B6;stroke-width:0.566929}
    .fil1 {fill:#F5B2B6}
    .fil0 {fill:#060606}
   ]]>
  </style>
 </defs>
 <g id="Слой_x0020_1">
  <metadata id="CorelCorpID_0Corel-Layer"/>
  <path fill="rgb(43, 23, 17)" stroke="rgb(43, 23, 17)" stroke-width="2" d="M275 427c4,-3 9,-9 13,-14 5,-8 5,-12 3,-23 -3,-18 -15,-54 -13,-70 1,-8 3,-16 5,-23 4,-15 7,-30 11,-45 14,-63 -6,-71 -2,-99 3,-16 7,-31 10,-46 3,-11 6,-23 7,-35 1,-4 2,-9 2,-12l-1 2c0,1 0,2 0,3l-10 39c-4,14 -11,30 -14,45 -5,30 17,32 4,100 -4,24 -12,46 -15,68 -1,9 0,17 2,25 3,16 7,31 10,46 3,14 4,18 -6,31 -1,2 -4,6 -5,7l-1 1c-1,-7 -2,-15 -4,-21 -1,-4 -2,-7 -3,-10 -1,-4 -1,-7 -2,-11 -2,-7 -4,-13 -6,-19 -3,-15 -3,-33 -3,-48 1,-8 2,-15 2,-24 0,-16 -1,-33 -2,-49 0,-27 0,-21 5,-46 4,-16 4,-30 3,-47 -1,-25 -1,-50 -1,-75 -1,-3 0,-23 -1,-25 0,3 0,10 0,13 -1,5 -1,9 -1,14 0,9 0,18 0,28 -1,18 0,37 0,55 1,21 -3,31 -6,50 -4,22 -1,56 -1,81 0,9 0,18 -1,27 0,17 0,36 5,52 1,4 2,7 3,11 3,10 2,11 6,22 3,8 3,26 6,36 2,3 9,17 8,20 -2,3 -10,2 -15,2 -40,-6 -20,-42 -24,-58 -1,-6 -2,-9 -2,-15 3,-16 -2,-30 -7,-44 -3,-9 -4,-18 -7,-27 -11,-28 -18,-58 -15,-89 1,-10 4,-19 6,-29 7,-23 3,-37 -3,-60 -4,-18 -9,-37 -13,-56l-5 -27c-1,-2 0,1 0,0 -3,3 -11,-3 -7,5 1,7 4,22 7,30 9,53 12,42 16,62 2,14 3,25 1,36 -2,11 -7,26 -6,31 -12,37 -1,64 12,97 7,19 20,47 18,68 0,3 -1,6 0,9 1,5 3,10 3,17 -1,9 -6,21 -1,34 3,10 10,14 20,17 5,2 12,3 17,2 9,-1 10,-3 8,-10 -4,-9 -9,-13 -10,-29z"/>
  <path fill="#a1896b" d="M202 65l55 3c-1,18 -1,35 0,54 3,33 0,62 -6,88 -5,23 -1,47 1,69 -4,12 -3,24 0,36l1 52 -9 1c-5,-25 -12,-46 -20,-71 -3,-6 -4,-16 -7,-23 -3,-28 0,-53 6,-76 3,-30 0,-59 -10,-87l-11 -46z"/>
  <path fill="#a1896b" d="M266 68l40 -1 -13 48c-6,15 -11,31 -13,48 7,16 11,33 12,49 -3,31 -9,60 -17,88 -4,18 -3,42 1,61l-14 0c-2,-13 -3,-26 0,-41l-1 -94 8 -38 -3 -120z"/>
 </g>
</svg>
