<svg width="50" height="50" viewBox="0 0 50 50" fill="none" xmlns="http://www.w3.org/2000/svg">
<g clip-path="url(#clip0)">
<path d="M36.106 32.5812C37.059 31.7661 37.3044 30.3916 36.6924 29.2973C36.0803 28.2025 34.7812 27.6919 33.5874 28.077C33.1064 28.2337 32.6618 28.4865 32.2815 28.8201C31.8005 27.6611 30.5691 27.0027 29.3385 27.2469C28.1079 27.491 27.2208 28.57 27.2191 29.8241C27.2191 30.3304 27.3224 30.8315 27.5224 31.2962C26.2725 31.396 25.2664 32.3636 25.1182 33.6092C24.9704 34.8543 25.7217 36.0313 26.9137 36.4207C27.2872 36.5423 27.6774 36.604 28.0698 36.604C28.185 36.604 28.2981 36.5813 28.412 36.571C28.113 37.7913 28.7183 39.0527 29.8572 39.583C30.9965 40.1132 32.3513 39.7642 33.0927 38.7499C33.393 38.3366 33.605 37.8654 33.7155 37.3664C34.6154 37.9404 35.7753 37.9018 36.635 37.27C37.8107 36.4155 38.0711 34.7695 37.2166 33.5938C36.9189 33.1843 36.5412 32.8395 36.106 32.5812V32.5812ZM29.4584 34.2628C28.9389 34.7948 28.1614 34.9845 27.4551 34.7515C27.014 34.5875 26.7814 34.1047 26.927 33.6576C27.0726 33.2104 27.5451 32.9577 27.9978 33.0849L29.9848 33.7304L29.4584 34.2628ZM28.9735 29.8241C28.9735 29.3397 29.3663 28.9469 29.8508 28.9469C30.3352 28.9469 30.728 29.3397 30.728 29.8241V31.9139L30.0585 31.5785C29.392 31.2487 28.971 30.5681 28.9735 29.8241ZM31.6724 37.7189C31.3876 38.1113 30.8389 38.1982 30.4466 37.9134C30.0546 37.6285 29.9677 37.0799 30.2525 36.6875L31.4805 34.9961L31.8253 35.6621C32.1701 36.3209 32.111 37.1184 31.6724 37.7189ZM32.6841 32.0604L32.7963 31.3198C32.9038 30.5839 33.4208 29.9736 34.1288 29.7461C34.2162 29.7174 34.3079 29.7029 34.4 29.7033C34.8313 29.7029 35.1992 30.0164 35.2669 30.4426C35.3346 30.8692 35.0823 31.2812 34.6715 31.4149L32.6841 32.0604ZM35.6031 35.8506C35.4147 35.9881 35.1791 36.045 34.9487 36.0086C34.7182 35.9718 34.5118 35.845 34.3751 35.6561L33.1471 33.9655L33.8868 33.8426C34.6201 33.7184 35.3603 34.0217 35.7954 34.6252C35.9329 34.8136 35.9899 35.0492 35.9531 35.2796C35.9167 35.5101 35.7899 35.7165 35.6006 35.8532L35.6031 35.8506Z" fill="#FAFAFA"/>
<path d="M34.2102 39.4733H36.8418V41.2277H34.2102V39.4733Z" fill="#F5F5F5"/>
<path d="M16.6662 46.491C18.6112 46.4905 20.4868 45.7684 21.9294 44.4641V45.6138C21.9324 48.0351 23.8946 49.9972 26.3154 49.9998H36.8419C39.2632 49.9972 41.2249 48.0351 41.2279 45.6138V23.8507C41.2421 21.2911 39.6945 18.9815 37.3216 18.0217C37.3006 18.0118 37.2342 17.9848 37.2158 17.9767C36.988 17.8867 36.8389 17.6657 36.8419 17.4207V16.666C37.3263 16.666 37.7191 16.2737 37.7191 15.7888V9.64839C37.7191 9.16396 37.3263 8.77119 36.8419 8.77119H36.65L36.1236 6.67583C36.0285 6.29848 36.0127 5.90528 36.0769 5.5215L36.106 5.34589C36.405 3.54822 35.613 1.7437 34.0874 0.747423C32.5617 -0.249283 30.591 -0.249283 29.0653 0.747423C27.5392 1.7437 26.7472 3.54822 27.0462 5.34589L27.0753 5.5215C27.1395 5.90571 27.1237 6.29891 27.0286 6.67669L26.5086 8.77119H26.3154C25.831 8.77119 25.4382 9.16396 25.4382 9.64839V15.7888C25.4382 16.2737 25.831 16.666 26.3154 16.666V17.4207C26.3142 17.6799 26.148 17.9094 25.9025 17.9917C23.4992 18.9417 21.923 21.2662 21.9294 23.8507V30.5638L17.4136 23.2241C17.2432 22.9816 16.9647 22.8369 16.6679 22.8369C16.3711 22.8369 16.0931 22.9816 15.9226 23.2241L10.7468 31.6393C9.45668 33.7304 8.77265 36.1393 8.77136 38.5961C8.7765 42.9547 12.308 46.4863 16.6662 46.491V46.491ZM35.9647 10.5256V14.9116H34.2103V10.5256H35.9647ZM28.7333 7.10458C28.8871 6.49337 28.9128 5.85645 28.8087 5.23453L28.7796 5.05892C28.5946 3.94828 29.0841 2.83292 30.0269 2.217C30.9696 1.60107 32.1878 1.60107 33.1309 2.217C34.0737 2.83292 34.5632 3.94828 34.3778 5.05892L34.3491 5.23453C34.2446 5.85602 34.2703 6.49251 34.4244 7.10373L34.8421 8.77119H28.3157L28.7333 7.10458ZM32.4559 10.5256V14.9116H30.7015V10.5256H32.4559ZM27.1927 10.5256H28.9471V14.9116H27.1927V10.5256ZM26.6016 19.6013C27.4912 19.2432 28.0729 18.3797 28.0699 17.4207V16.666H35.0875V17.4207C35.0776 18.3558 35.6315 19.2051 36.4911 19.5735C36.5121 19.5846 36.5789 19.612 36.6016 19.6214C38.2789 20.2853 39.402 21.8813 39.4615 23.6837H23.6963C23.7609 21.8646 24.9037 20.2588 26.6016 19.6013V19.6013ZM23.6838 42.1928C24.2595 41.0813 24.5602 39.8481 24.561 38.5961C24.5593 36.9801 24.2621 35.3777 23.6838 33.8683V25.4381H39.4735V39.4733H37.7191V41.2277H39.4735V42.9822H23.6838V42.1928ZM23.6838 44.7366H39.4735V45.6138C39.4735 47.0675 38.2952 48.2454 36.8419 48.2454H26.3154C24.8622 48.2454 23.6838 47.0675 23.6838 45.6138V44.7366ZM12.2348 32.5585L16.6662 25.3575L21.0981 32.5594C22.2155 34.3746 22.8071 36.4648 22.8066 38.5961C22.8066 41.9876 20.0577 44.7366 16.6662 44.7366C13.2752 44.7366 10.5258 41.9876 10.5258 38.5961C10.5258 36.4644 11.1173 34.3742 12.2348 32.5585Z" fill="#F5F5F5"/>
<path d="M13.5232 40.2632C13.8191 40.2627 14.0945 40.1133 14.256 39.8657C14.4179 39.6181 14.444 39.3059 14.3258 39.0347C13.9039 38.0637 13.942 36.9539 14.4303 36.0146C14.9186 35.0749 15.8044 34.4054 16.8418 34.193C17.3164 34.0957 17.6226 33.6323 17.5258 33.1577C17.429 32.6827 16.9656 32.3765 16.491 32.4733C14.0431 32.9791 12.2857 35.1323 12.2802 37.6316C12.2789 38.3558 12.4279 39.0729 12.7188 39.7368C12.8584 40.0567 13.1745 40.2632 13.5232 40.2632V40.2632Z" fill="#FAFAFA"/>
<path d="M16.8417 41.0701C16.6006 41.0213 16.365 40.9472 16.1397 40.8483C15.6964 40.6572 15.1824 40.8607 14.9892 41.3031C14.7961 41.7456 14.9969 42.2604 15.4381 42.4562C15.7761 42.6044 16.129 42.7157 16.4909 42.7894C16.5488 42.801 16.6074 42.8065 16.6661 42.807C17.1167 42.8074 17.4945 42.4665 17.5399 42.018C17.5853 41.5695 17.2833 41.1596 16.8417 41.0701V41.0701Z" fill="#F5F5F5"/>
<path d="M18.4205 20.1748H20.1749V21.9293H18.4205V20.1748Z" fill="#F5F5F5"/>
<path d="M18.4205 16.666H20.1749V18.4204H18.4205V16.666Z" fill="#F5F5F5"/>
<path d="M18.4205 10.5256H20.1749V14.9116H18.4205V10.5256Z" fill="#F5F5F5"/>
</g>
<defs>
<clipPath id="clip0">
<rect width="50" height="50" fill="white"/>
</clipPath>
</defs>
</svg>
