<svg width="35" height="35" viewBox="0 0 35 35" fill="none" xmlns="http://www.w3.org/2000/svg">
<circle cx="17.3258" cy="17.3258" r="16.8258" stroke="#37231D"/>
<path d="M23.2742 24.352H23.7742V23.852V7.5V7H23.2742H11.0242H10.5242V7.5V23.852V24.352H11.0242H23.2742ZM20.0012 26.204V25.704H19.5012H14.7983H14.2983V26.204V27.352V27.852H14.7983H19.5012V27.352H20.0012V26.204ZM21.7972 4.5C22.6077 4.5 23.302 4.79027 23.9039 5.39285C24.5061 5.99575 24.7965 6.69038 24.7972 7.50041V26.2028C24.7972 27.0134 24.5069 27.7077 23.9043 28.3096C23.3014 28.9118 22.6068 29.2022 21.7968 29.2028H12.5C11.6894 29.2028 10.9952 28.9126 10.3933 28.31C9.79108 27.7071 9.50072 27.0126 9.5 26.2026V7.5C9.5 6.68943 9.79027 5.99516 10.3929 5.39325C10.9957 4.79108 11.6903 4.50072 12.5002 4.5H21.7972Z" 
fill="#37231D" stroke="#37231D"/>
</svg>
