
<svg xmlns="http://www.w3.org/2000/svg"  width="80px" height="80px" viewBox="0 0 500 500">
 
 <g>
  <path fill="#ECDECE" d="M231 163c0,-6 4,-6 1,-10 -1,-2 -3,-2 -6,-6 -14,-14 -41,-20 -60,-23 1,18 1,46 18,56 16,9 43,0 47,-17z"/>
  <path fill="#ECDECE" d="M300 125c-7,0 -21,7 -27,11 -3,2 -7,7 -10,9 -4,5 -4,7 -6,12l-1 4 7 11c10,9 27,17 40,7 10,-8 13,-32 13,-44 0,-5 0,-10 0,-14 -1,-10 -2,-6 -3,-10l0 11c-3,1 -6,0 -8,1 -1,0 -2,1 -5,2z"/>
  <path fill="rgb(43, 23, 17)" d="M162 69l-2 0c-1,10 1,7 4,13 2,5 5,36 2,41l-3 -6 -1 2 -4 -3c-3,11 6,3 6,26 1,15 2,14 5,27 2,2 8,10 9,12 29,18 39,-3 63,-11 5,-2 25,8 30,12 17,12 31,1 34,2 3,7 -9,42 -4,46 4,-5 7,-36 8,-43 1,-12 2,-10 6,-20 2,-6 5,-16 3,-22 -1,-5 1,-10 -2,-10 0,12 -3,36 -13,44 -13,10 -30,2 -40,-7 -4,-2 0,-2 -5,0l-1 -2c-3,-1 -7,-3 -10,-5 -6,-2 -5,1 -11,3 -2,3 -1,2 -5,2 0,-4 3,-6 0,-7 -4,17 -31,26 -47,17 -17,-10 -17,-38 -18,-56 19,3 46,9 60,23l4 3 1 -3c-10,-7 -13,-11 -26,-17 -7,-3 -32,-8 -33,-9l-3 -53 -2 -1c-1,4 1,4 -2,7 -3,-2 -2,-1 -3,-5z"/>
  <path fill="rgb(43, 23, 17)" d="M160 277c-2,9 -13,28 -17,39 -2,7 -12,39 -12,44 -1,5 -2,4 -1,10l5 -8c0,-8 18,-63 23,-70l-8 96 2 0c3,-32 6,-80 15,-108l0 -6c-1,0 -1,0 -1,0l-3 1c-2,0 -2,1 -3,2z"/>
  <path fill="rgb(43, 23, 17)"  d="M330 326c1,4 9,29 10,34 3,15 -1,26 -3,40 0,3 -1,38 9,25 4,-4 11,-30 2,-13 -10,18 -7,-9 -7,-15 1,-13 5,-23 3,-37 -4,-20 -15,-46 -22,-66 -11,-33 -12,-41 -10,-76 0,-9 0,-27 -4,-5 -1,12 1,27 -2,37 -3,10 -1,9 3,19 5,12 8,21 11,33 2,10 11,73 12,75 5,-14 -5,-41 -2,-51z"/>
  <path fill="rgb(43, 23, 17)" d="M160 277c1,-1 1,-2 3,-2l3 -1c0,0 0,0 1,0l0 6c4,-8 8,-23 12,-32 3,-8 3,-32 0,-40 1,9 2,20 0,29 0,0 0,-1 -1,-1 0,0 0,0 0,-1l-1 -3c-1,9 3,10 -3,19 -3,4 -5,8 -6,14 -2,-3 1,-9 1,-15l-2 0c0,-3 2,-71 4,-73 -4,-2 1,2 1,3 5,6 0,7 6,16 -1,-7 -2,-8 -3,-15l3 0c-1,-2 -7,-10 -9,-12 1,15 -4,65 -4,83 0,16 -4,17 -5,25z"/>
  <path fill="rgb(43, 23, 17)"  d="M343 178c-1,19 -5,22 -3,34 1,6 3,14 7,27 10,28 4,58 9,63 4,-12 0,-49 -4,-61 -3,-9 -6,-17 -8,-27 -2,-12 2,-20 1,-31l0 -7 -2 2z"/>
  <path fill="rgb(43, 23, 17)"  d="M114 370c4,-8 12,-117 11,-121 -6,4 -6,51 -7,60 -1,12 -8,54 -4,61z"/>
  <path fill="rgb(43, 23, 17)" d="M349 103c5,8 0,24 1,35 1,-5 1,-8 4,-10 -1,-22 1,-36 -7,-57 -7,-17 -28,-24 -44,-23 10,6 27,6 35,16 6,8 11,28 11,39z"/>
  <path fill="rgb(43, 23, 17)"  d="M169 250c-1,-8 1,-16 2,-25 1,-7 -1,-22 2,-27 3,4 2,12 2,17 1,6 2,11 2,17l1 3c0,1 0,1 0,1 1,0 1,1 1,1 2,-9 1,-20 0,-29l-1 -12c-6,-9 -1,-10 -6,-16 0,-1 -5,-5 -1,-3 -2,2 -4,70 -4,73l2 0z"/>
  <path fill="rgb(43, 23, 17)" d="M295 122l4 0 1 3c3,-1 4,-2 5,-2 2,-1 5,0 8,-1l0 -11c1,4 2,0 3,10 0,4 0,9 0,14 3,0 1,5 2,10 3,-5 1,-16 2,-22 3,-13 -5,-17 -5,-17 -2,-8 0,-29 -5,-34l2 25c0,3 1,9 1,11 0,3 -1,10 -2,12 -3,-4 -4,-53 -3,-55 2,2 1,3 2,7 0,-4 1,-10 -2,-12 -7,4 2,50 -1,59 -6,2 -6,0 -12,3z"/>
  <path fill="rgb(43, 23, 17)" d="M152 66l4 -4 -7 1c-15,11 -15,8 -22,32 -5,15 -5,31 -2,47l1 1c0,0 0,1 0,1 0,0 0,0 0,1 6,-6 -4,-22 4,-49 4,-12 9,-26 22,-30z"/>
  <path fill="rgb(43, 23, 17)"  d="M169 250c0,6 -3,12 -1,15 1,-6 3,-10 6,-14 6,-9 2,-10 3,-19 0,-6 -1,-11 -2,-17 0,-5 1,-13 -2,-17 -3,5 -1,20 -2,27 -1,9 -3,17 -2,25z"/>
  <path fill="rgb(43, 23, 17)" d="M246 154c-4,0 -7,-2 -10,0 3,2 3,1 6,4l6 0 6 1 3 -2c2,-5 2,-7 6,-12 3,-2 7,-7 10,-9 6,-4 20,-11 27,-11l-1 -3 -4 0c-7,1 -20,7 -25,12 -10,7 -11,12 -16,21l-8 -1z"/>
  <path fill="rgb(43, 23, 17)"  d="M357 313c-7,6 2,64 10,71 1,-6 -6,-25 -7,-33 -1,-10 -1,-29 -3,-38z"/>
  <path fill="rgb(43, 23, 17)" d="M343 178l2 -2 0 7c4,-6 4,-19 5,-26 1,-6 1,-10 1,-15 1,-5 3,-10 3,-14 -3,2 -3,5 -4,10 -1,-11 4,-27 -1,-35 0,23 -1,19 -2,39 0,6 1,11 -1,18 -1,2 -4,16 -3,18z"/>
  <path fill="rgb(43, 23, 17)" d="M130 239c4,-8 2,-34 2,-47 1,-14 3,-36 -1,-47 -3,8 -3,82 -1,94z"/>
  <path fill="rgb(43, 23, 17)" d="M236 168c6,-2 5,-5 11,-3 3,2 7,4 10,5l2 1c-4,-4 -3,-8 -7,-10l-3 -2c0,0 -1,0 -1,-1l-6 0 -6 -1c-1,5 -2,5 -3,10l3 1z"/>
  <path fill="rgb(43, 23, 17)" d="M310 72l0 0c-1,-4 0,-5 -2,-7 -1,2 0,51 3,55 1,-2 2,-9 2,-12 0,-2 -1,-8 -1,-11l-2 -25z"/>
  <path fill="rgb(43, 23, 17)" d="M149 63l7 -1 -4 4c10,-3 9,-4 13,-2 -1,4 -1,4 -3,5 1,4 0,3 3,5 3,-3 1,-3 2,-7l2 1 0 -6 3 -1 1 -3 -5 0c-2,0 -6,1 -9,1 -2,0 -3,1 -5,1 -4,1 -2,1 -5,3z"/>
  <path fill="rgb(43, 23, 17)" d="M231 163c3,1 0,3 0,7 4,0 3,1 5,-2l-3 -1c1,-5 2,-5 3,-10l6 1c-3,-3 -3,-2 -6,-4 3,-2 6,0 10,0 -1,-3 -6,-1 -9,-2 -3,-1 -3,-3 -6,-5l-1 3 -4 -3c3,4 5,4 6,6 3,4 -1,4 -1,10z"/> 
  <path fill="rgb(43, 23, 17)" d="M248 158c0,1 1,1 1,1l3 2c4,2 3,6 7,10l-2 -1 1 2c5,-2 1,-2 5,0l-7 -11 1 -4 -3 2 -6 -1z"/>
  <path fill="#a1896b" d="M315 60c19,3 28,23 30,54l-9 76 2 34 5 18 6 27 7 94 -7 1 -14 -45 -11 -26 -8 -43 -1 -74c6,-11 10,-26 10,-45l-2 -22 -4 -5 -4 -44z"/>
  <path fill="#a1896b" d="M159 68c-19,3 -28,22 -29,54l6 22 -1 40 0 22 0 25 -4 18 -5 27 -7 94 7 2 13 -45 11 -26 9 -43 4 -51c4,-9 3,-25 2,-40 0,-3 -2,-6 -2,-9l-4 -23 -7 -18 4 -6 3 -43z"/>
 </g>
</svg>
