<svg width="26" height="26" viewBox="0 0 30 30" fill="none" xmlns="http://www.w3.org/2000/svg">
<path d="M29.94 12.8424C29.836 12.6209 29.6138 12.4792 29.3681 12.4792H27.4998C26.312 6.03317 20.6517 1.13306 13.8674 1.13306C6.22136 1.13306 0 7.35441 0 15.0004C0 22.6464 6.22072 28.8671 13.8674 28.8671C18.8019 28.8671 23.404 26.2112 25.8773 21.9373C26.2258 21.3341 26.0203 20.5637 25.4165 20.2146C24.8139 19.8654 24.0429 20.071 23.695 20.6741C21.6704 24.1726 17.9045 26.3466 13.8674 26.3466C7.61154 26.3466 2.52122 21.2569 2.52122 15.0017C2.52122 8.74523 7.61154 3.65556 13.8674 3.65556C19.2558 3.65556 23.7703 7.43484 24.9205 12.4798H23.067C22.8212 12.4798 22.5997 12.6215 22.4951 12.843C22.391 13.0645 22.4248 13.3256 22.5819 13.5139L25.7337 17.2957C25.8537 17.4393 26.0305 17.5223 26.2182 17.5223C26.4052 17.5223 26.5826 17.4387 26.702 17.2957L29.8538 13.5139C30.0109 13.3249 30.044 13.0639 29.94 12.8424Z"
 fill="#ECDECE"/>
<path d="M13.8673 4.28491C13.171 4.28491 12.6067 4.84916 12.6067 5.54552V13.1947C12.0367 13.5943 11.6614 14.253 11.6614 15.0011C11.6614 16.2176 12.6514 17.2076 13.868 17.2076C14.2012 17.2076 14.5152 17.1278 14.7986 16.9944L19.1836 19.5252C19.3828 19.6408 19.5985 19.695 19.813 19.695C20.2483 19.695 20.6721 19.4691 20.9057 19.0644C21.2536 18.4625 21.0474 17.6908 20.4436 17.3429L16.0541 14.8083C15.9954 14.1419 15.6488 13.5598 15.1292 13.196V5.54552C15.128 4.84979 14.5631 4.28491 13.8673 4.28491ZM13.8673 15.9457C13.3459 15.9457 12.922 15.5213 12.922 15.0011C12.922 14.4802 13.3465 14.0558 13.8673 14.0558C14.3882 14.0558 14.8126 14.4802 14.8126 15.0011C14.8126 15.5213 14.3882 15.9457 13.8673 15.9457Z" 
fill="#ECDECE"/>
</svg>
