<svg width="35" height="35" viewBox="0 0 35 35" fill="none" xmlns="http://www.w3.org/2000/svg">
<rect x="0.5" y="0.5" width="34" height="34" rx="9.5" fill="#37231D" stroke="#37231D"/>
<path d="M17.2381 25C21.8803 25 20.225 22.6555 20.5834 21.9813C20.578 21.4779 20.5727 20.9936 20.5941 20.6992C20.8882 20.7653 21.5821 21.0459 23.0154 22.1573C25.2282 23.9387 25.7937 25 27.5813 25H30.8718C31.9146 25 32.4575 24.6555 32.7289 24.3664C32.9909 24.0869 33.2476 23.5963 32.9669 22.8325C32.2328 20.9936 27.9517 17.8181 27.6856 17.4832C27.7257 17.4213 27.7899 17.3392 27.8233 17.2965H27.8207C28.6657 16.4059 31.8906 12.5509 32.3652 11.0085C32.3665 11.0064 32.3679 11.0032 32.3679 11C32.6246 10.296 32.3893 9.83947 32.1459 9.58133C31.7796 9.1952 31.1967 9 30.4091 9H27.1187C26.017 9 25.1814 9.44267 24.7589 10.2501C24.0516 11.6848 22.0648 14.6352 20.5753 15.6795C20.5299 14.2 20.5606 13.0704 20.5847 12.2309C20.6328 10.5936 20.7879 9 18.6581 9H13.4865C12.1521 9 10.8752 10.1627 12.2577 11.5429C13.4664 12.7525 12.6923 13.4267 12.953 16.7824C11.9368 15.9131 10.1292 13.5653 8.851 10.5648C8.49267 9.75307 7.94984 9.00107 6.42163 9.00107H3.13121C1.79687 9.00107 1 9.58133 1 10.5531C1 12.7355 7.05537 25 17.2381 25V25ZM6.42163 10.6011C6.71176 10.6011 6.74117 10.6011 6.95643 11.0885C8.26538 14.1637 11.2015 18.7141 13.3461 18.7141C14.9572 18.7141 14.9572 17.3968 14.9572 16.9008L14.9558 12.952C14.8676 11.6453 14.2713 10.9947 13.8795 10.6L18.5698 10.6043C18.5725 10.6224 18.5431 14.9723 18.5832 16.0261C18.5832 17.5227 20.0726 18.3803 22.3977 16.5029C24.8511 14.2939 26.5478 10.9915 26.616 10.8571C26.7163 10.6651 26.8032 10.6 27.1187 10.6H30.4091H30.4225C30.4212 10.6032 30.4212 10.6064 30.4198 10.6096C30.119 11.7296 27.1495 15.2987 26.1561 16.4069C26.14 16.424 26.1253 16.4421 26.1106 16.4603C25.6734 17.0299 25.3178 17.6592 26.1708 18.5445H26.1721C26.2497 18.6192 26.4516 18.7941 26.7457 19.0373C27.6602 19.7904 30.7969 22.3653 31.075 23.3893C30.8905 23.4128 30.6899 23.3957 27.5813 23.4011C26.9195 23.4011 26.4021 22.6117 24.4273 21.0224C22.6517 19.6443 21.4992 19.0811 20.4497 19.0811C18.412 19.0811 18.5605 20.4005 18.5792 21.9963C18.5859 23.7264 18.5725 23.1792 18.5872 23.288C18.4682 23.3253 18.1273 23.4 17.2381 23.4C8.75473 23.4 3.23015 12.6576 3.01757 10.6043C3.0911 10.5989 4.10323 10.6021 6.42163 10.6011V10.6011Z"
 fill="#ECDECE"/>
</svg>
