
<svg version="1.1" id="Capa_1" xmlns="http://www.w3.org/2000/svg" xmlns:xlink="http://www.w3.org/1999/xlink" x="0px" y="0px"
	 viewBox="0 0 512 512" width="70" height="70" style="enable-background:new 0 0 512.035 512.035;" xml:space="preserve">
<g>
	<g>
		<g>
			<path d="M501.254,202.034c-8.097-9.106-19.702-14.315-31.888-14.312h-0.033v-34.133c-0.037-11.012-7.126-20.76-17.59-24.191
				c-5.396-60.956-78.741-61.143-118.944-61.143c-37.533,0-69.383-46.933-69.708-47.408c-2.096-3.07-5.935-4.436-9.5-3.38
				c-3.565,1.056-6.04,4.292-6.125,8.009c-0.025,0.896-0.925,22.142-30.717,44.488c-18.946,12.878-28.256,35.912-23.579,58.338
				c-12.811,1.537-22.464,12.385-22.504,25.287v17.302c-2.881-0.153-5.715-0.235-8.533-0.235C72.59,170.655,0,243.245,0,332.788
				s72.59,162.133,162.133,162.133c7.745,0.001,15.479-0.586,23.135-1.757c3.736,1.113,7.608,1.705,11.506,1.757h246.492
				c21.633-0.008,39.84-16.199,42.375-37.683l26.1-221.863C513.168,223.274,509.352,211.14,501.254,202.034z M226.983,83.613
				c14.212-9.987,25.537-23.546,32.833-39.308c14.225,16.317,41.033,41.017,72.983,41.017c50.519,0,96.176,3.442,101.806,42.667
				H210.725C205.694,111.228,212.315,93.156,226.983,83.613z M187.733,153.588c0.005-4.711,3.822-8.529,8.533-8.533h247.467
				c4.711,0.005,8.529,3.822,8.533,8.533v34.133H187.733V153.588z M162.133,477.855c-80.081-0.089-144.977-64.986-145.067-145.067
				c0.089-80.081,64.986-144.977,145.067-145.067c1.846,0,3.725,0.082,5.602,0.156c-13.714,0.816-26.153,8.314-33.279,20.059
				c-62.434,13.76-105.103,71.528-99.899,135.249S91.24,456.984,155.079,460.431c1.192,6.303,3.8,12.254,7.627,17.402
				C162.512,477.833,162.328,477.855,162.133,477.855z M128.3,235.372l24.454,207.874c-52.654-4.422-94.864-45.4-100.843-97.901
				s25.937-101.92,76.249-118.067C127.949,229.975,127.996,232.685,128.3,235.372z M468.692,455.243
				c-1.519,12.892-12.444,22.609-25.425,22.612H196.775c-12.982,0.002-23.909-9.715-25.425-22.608l-1.356-11.525h300.053
				L468.692,455.243z M472.054,426.655H167.986L147.91,255.988h344.221L472.054,426.655z M494.792,233.38l-0.652,5.542H145.902
				l-0.652-5.546c-0.855-7.259,1.435-14.537,6.291-19.999c4.856-5.462,11.817-8.588,19.126-8.588h298.7
				c7.312,0.002,14.274,3.129,19.133,8.592h0C493.355,218.843,495.645,226.121,494.792,233.38z"/>
			<path d="M247.467,153.588h-34.133c-4.713,0-8.533,3.82-8.533,8.533s3.821,8.533,8.533,8.533h34.133
				c4.713,0,8.533-3.821,8.533-8.533S252.18,153.588,247.467,153.588z"/>
			<path d="M426.667,153.588H281.6c-4.713,0-8.533,3.82-8.533,8.533s3.82,8.533,8.533,8.533h145.067
				c4.713,0,8.533-3.821,8.533-8.533S431.38,153.588,426.667,153.588z"/>
		</g>
	</g>
</g>
<g>
</g>
<g>
</g>
<g>
</g>
<g>
</g>
<g>
</g>
<g>
</g>
<g>
</g>
<g>
</g>
<g>
</g>
<g>
</g>
<g>
</g>
<g>
</g>
<g>
</g>
<g>
</g>
<g>
</g>
</svg>
