<svg width="35" height="35" viewBox="0 0 35 35" fill="none" xmlns="http://www.w3.org/2000/svg">
<rect x="0.5" y="0.5" width="34" height="34" rx="9.5" fill="#37231D" stroke="#37231D"/>
<path d="M25.6464 9.34219C23.4838 7.18594 20.6084 6 17.543 6C11.2316 6 6.09462 11.1117 6.09462 17.3965C6.09462 19.4047 6.62262 21.3676 7.62516 23.0926L6 29L12.0716 27.4144C13.7466 28.3215 15.6289 28.8023 17.543 28.8023H17.5473C23.8587 28.8023 29 23.6899 29 17.4058C29 14.3598 27.8082 11.4984 25.6457 9.34219H25.6464ZM17.548 26.8797C15.8369 26.8797 14.1619 26.4218 12.6993 25.5593L12.3519 25.3523L8.74977 26.291L9.71115 22.7958L9.48507 22.4364C8.52803 20.9313 8.02676 19.1883 8.02676 17.3965C8.02676 12.1719 12.297 7.92266 17.5524 7.92266C20.0941 7.92266 22.4864 8.91094 24.2834 10.6985C26.0805 12.491 27.0686 14.8672 27.0686 17.4008C27.0643 22.6297 22.7933 26.8797 17.548 26.8797V26.8797ZM22.7666 19.782C22.482 19.6383 21.0735 18.9512 20.8121 18.8563C20.5506 18.7614 20.3606 18.7125 20.1663 19C19.9771 19.2832 19.426 19.9258 19.2591 20.1184C19.0923 20.3067 18.9254 20.334 18.6409 20.1903C18.3563 20.0465 17.431 19.7454 16.3382 18.7751C15.4895 18.0204 14.9117 17.086 14.7448 16.8028C14.578 16.5196 14.7268 16.3622 14.8712 16.2235C15.0019 16.0977 15.1558 15.8907 15.3003 15.7247C15.4447 15.5587 15.4895 15.4415 15.5848 15.2489C15.6795 15.0606 15.6347 14.8938 15.5624 14.7501C15.4902 14.6063 14.9167 13.2047 14.682 12.6341C14.4516 12.077 14.2125 12.1532 14.0362 12.1446C13.8694 12.136 13.6794 12.136 13.4902 12.136C13.3009 12.136 12.9889 12.2078 12.7274 12.491C12.4653 12.7742 11.7256 13.4657 11.7256 14.8672C11.7256 16.2688 12.7506 17.6208 12.895 17.8141C13.0395 18.0024 14.9131 20.8824 17.7842 22.1129C18.4661 22.4047 18.9984 22.5801 19.4137 22.7145C20.0999 22.9302 20.7232 22.8985 21.2151 22.8267C21.7655 22.7454 22.9082 22.1395 23.1473 21.4747C23.3863 20.8098 23.3863 20.2392 23.3141 20.1227C23.2462 19.9969 23.057 19.9251 22.768 19.7813L22.7666 19.782Z" 
fill="#ECDECE"/>
</svg>
