
<svg xmlns="http://www.w3.org/2000/svg"  width="80px" height="80px" viewBox="0 0 500 500">
 <g >
  <g >
   <path fill="rgb(43, 23, 17)" d="M274 90l-2 0c0,2 2,6 1,8 -2,-1 -1,-4 -2,-6 -1,-2 0,0 -2,-1 0,3 4,23 6,27 1,3 0,5 2,7 3,3 2,9 5,11 1,1 1,0 2,2 1,2 2,4 3,6 1,2 3,8 4,9l2 2c1,1 1,1 1,2 1,1 2,2 3,3 1,2 1,3 3,4l1 -3 15 15c1,2 2,5 4,7 2,1 1,0 3,1 1,1 2,4 3,4 2,2 2,1 4,4 1,2 2,3 3,5 1,1 2,2 3,4 3,3 4,5 6,8l10 17c3,3 -1,1 2,7 4,9 7,27 7,37l-3 12c-1,2 -3,3 -3,5 -1,1 -2,3 -3,5 -3,3 -11,12 -15,14 -3,1 -5,1 -5,2 2,2 6,-1 8,-2 2,0 3,-1 4,-2l8 -6c1,-1 2,-1 2,-2 1,-1 0,-1 1,-2 0,-1 2,-3 2,-4l3 -4c0,5 0,6 -1,10 -3,7 0,3 -1,8 0,2 -1,7 -2,10 0,1 0,4 -2,6l-1 1c0,0 0,0 0,0 0,3 -3,12 -4,15 -4,7 -5,15 -7,19 -1,3 -1,2 -2,5l-6 20c-2,3 -3,5 -4,9 -1,2 -1,3 -2,5 0,2 -1,3 -1,5 2,0 2,-1 3,-3 1,-2 1,-3 2,-5 1,-3 2,-2 2,-4 1,-3 1,-3 3,-8l3 -7c2,-4 1,-8 2,-12l4 -9c1,-3 2,-7 4,-11 1,-3 2,-6 3,-9 1,-5 2,-7 4,-11 1,-2 2,-8 3,-10 1,-4 1,-8 2,-12 2,-7 2,-28 2,-38 -1,-8 -3,-15 -5,-23 -1,-4 -2,-7 -4,-10 -1,-2 -3,-7 -4,-9l-3 -4c-3,-2 -9,-12 -11,-16 -1,-2 -3,-4 -5,-6l-1 -2c0,-1 0,-1 -1,-1 -4,-4 -8,-9 -11,-14l-10 -11c-2,-2 -5,-3 -7,-6 -2,-3 -2,-3 -5,-5 -5,-3 -10,-14 -12,-19 -6,-15 -4,-6 -6,-21 -2,-8 -4,-15 -5,-23z"/>
   <path fill="rgb(43, 23, 17)" d="M187 404l3 0c2,0 0,-2 0,-4 -2,-3 -4,-8 -5,-9 -1,-8 -2,-7 -5,-15 -2,-7 0,-4 -2,-11 -4,-11 -7,-35 -7,-47 2,2 4,6 7,8 7,7 2,2 9,6 5,3 22,8 23,5 -1,-2 -1,0 -6,-2 -2,-1 -2,-1 -3,-2 -5,-2 -5,-2 -9,-4 -5,-2 -13,-6 -16,-10 -2,-3 -4,-8 -5,-12l-2 -1c-1,-4 -3,-7 -4,-14 -4,-18 -4,-17 -4,-34 0,-11 2,-24 3,-35l1 -6c0,-4 1,-2 2,-10 0,-2 0,-6 1,-9 0,0 0,-3 1,-4 0,-1 0,0 1,-3 1,-3 4,-13 3,-16 -5,1 -2,3 -5,4l-13 -21c-1,-2 -2,-5 -4,-8 -4,-8 -7,-15 -10,-23 -1,-2 -2,-5 -3,-6 -2,-1 -1,0 -2,-1l6 17c1,4 3,8 5,11 1,2 1,3 2,5l6 10c2,3 0,1 4,7l7 10c2,4 2,5 1,10 -1,2 -2,6 -2,9 -1,4 -2,6 -2,10l-2 15c-1,2 -1,1 -1,4 -1,2 -1,4 -1,5 0,2 -1,3 -1,4 -4,21 0,41 5,61 0,1 1,2 1,3 2,5 0,3 2,7 3,7 0,9 2,17 2,7 0,4 0,7l2 12c0,4 1,5 2,9 2,6 -2,0 1,8 0,3 1,6 2,9 1,3 2,5 3,8 1,3 1,6 3,9 2,6 5,9 6,17z"/>
   <path fill="rgb(43, 23, 17)" d="M263 311c0,-2 0,-1 1,-3 2,-3 2,-6 3,-8 0,-1 0,0 1,-1 1,1 5,8 5,8 -1,2 -2,2 -4,3 -1,1 -2,3 -3,3 0,-2 0,-1 1,-4 -4,1 -1,1 -4,2zm-9 99l2 0c1,-5 -1,-10 -1,-16 0,-16 1,-35 3,-50 1,-6 4,-23 8,-27 2,-2 8,-8 9,-8l15 3c0,0 -1,-1 0,0 2,0 3,1 5,1 2,1 0,0 3,0 3,-1 10,1 10,-4 -5,-1 -15,1 -20,0 -6,-1 -15,-6 -18,-12 -4,-10 -1,-5 -2,-13 -1,-2 -1,-1 -1,-4 -1,-3 0,-6 0,-9 -1,-10 -6,-22 -11,-30 -4,-6 -4,-7 -2,-11 1,-2 2,-5 3,-7 1,-2 4,-8 3,-10 -1,0 -1,0 -1,0l-4 1c1,2 1,1 2,2 0,3 -3,5 -6,14 -2,0 -3,-1 -5,-2 -1,-1 -2,-2 -3,-3 -2,-1 -5,-5 -7,-4 0,2 1,2 5,5 5,4 6,8 8,9 2,1 1,1 2,3 4,6 2,3 4,7 4,8 9,22 8,34 0,2 1,6 0,10 0,1 0,2 0,3 0,1 0,0 0,1 1,0 1,-1 1,2l-2 6c-1,4 2,1 -4,11 -4,5 -6,8 -10,12 -6,5 -11,4 -14,6 0,0 0,1 0,1 0,-1 0,0 0,0 0,1 1,1 3,3 2,0 6,-2 7,-3 2,0 2,0 3,-2l7 -7c2,-1 3,-4 4,-4 1,2 -2,19 -3,22 -1,3 -2,1 -2,5 0,3 2,4 1,9 -1,2 -1,1 -1,2 0,1 0,1 -1,1l1 18c0,4 -1,2 -1,5 0,3 0,4 0,6 0,21 2,15 2,24z"/>
   <path fill="rgb(43, 23, 17)" d="M263 311c3,-1 0,-1 4,-2 -1,3 -1,2 -1,4 1,0 2,-2 3,-3 2,-1 3,-1 4,-3 0,0 -4,-7 -5,-8 -1,1 -1,0 -1,1 -1,2 -1,5 -3,8 -1,2 -1,1 -1,3z"/>
  </g>
  <path fill="#a1896b" d="M228 236c14,0 26,10 31,25 3,5 4,12 4,19 0,6 1,12 -2,18 -5,15 -19,25 -33,25 -20,0 -35,-20 -35,-43 0,-24 15,-44 35,-44z"/>
  <path fill="#a1896b" d="M284 226c17,-7 37,4 46,24 8,20 2,42 -15,49 -9,4 -30,4 -39,-2 -7,-5 -7,-11 -9,-21 -1,-6 -1,-12 -1,-18 -1,-14 6,-27 18,-32z"/>
 </g>
</svg>
